<svg xmlns="http://www.w3.org/2000/svg" width="70" height="70" viewBox="0 0 70 70">
  <g id="add_task-24px" transform="translate(-0.132)">
    <rect id="Rectangle_4929" data-name="Rectangle 4929" width="70" height="70" transform="translate(0.132)" fill="none"/>
    <path id="Path_715" data-name="Path 715" d="M59.735,13.65,29.808,43.577a2.98,2.98,0,0,1-4.22,0l-8.469-8.469a2.98,2.98,0,0,1,0-4.22h0a2.98,2.98,0,0,1,4.22,0l6.344,6.344,27.8-27.8a2.98,2.98,0,0,1,4.22,0h0A2.954,2.954,0,0,1,59.735,13.65Zm-27.8,42.227a23.946,23.946,0,0,1-4.01-47.554,23.707,23.707,0,0,1,14.933,2.334,3,3,0,0,0,3.5-.539h0a3,3,0,0,0-.718-4.788A29.93,29.93,0,1,0,31.933,61.862a29.633,29.633,0,0,0,10.205-1.8,3,3,0,0,0,1.047-4.938h0a2.932,2.932,0,0,0-3.112-.688A23.763,23.763,0,0,1,31.933,55.876Z" transform="translate(3.067 3.065)" fill="#003cad"/>
  </g>
</svg>
