<svg xmlns="http://www.w3.org/2000/svg" xmlns:xlink="http://www.w3.org/1999/xlink" width="960" height="807" viewBox="0 0 960 807"><defs><style>.a,.q{fill:#fff;}.b{clip-path:url(#a);}.c{fill:#003089;}.d{mix-blend-mode:multiply;isolation:isolate;}.e{fill:#ebebeb;}.f{fill:#dbdbdb;}.g{fill:#c7c7c7;}.h{fill:#263238;}.i{opacity:0.2;}.j,.k{fill:#7eabff;}.j{opacity:0.4;}.l{fill:#455a64;}.m{fill:#a6a6a6;}.n{opacity:0.1;}.o{fill:#37474f;}.p{fill:#ad6359;}.q{font-size:50px;font-family:Helvetica-Bold, Helvetica;font-weight:700;}</style><clipPath id="a"><rect class="a" width="960" height="807" transform="translate(-6724 595)"/></clipPath></defs><g class="b" transform="translate(6724 -595)"><g transform="translate(-6724 322)"><rect class="c" width="960" height="807" transform="translate(0 273)"/><g transform="translate(150.654 570.466)"><g class="d" transform="translate(36.25 42.1)"><path class="e" d="M90.283,321.35l-18.8.369-9.57.164c-3.186,0-6.385,0-9.57.068h-.6v-.6l-.082-16.023v-.7h.684l18.963.082c6.316,0,12.633.15,18.949.219h.383v.369c0,2.734-.123,5.469-.178,8.08Zm0,0-.191-8.094c0-2.666-.15-5.3-.178-7.93l.369.369c-6.316,0-12.633.219-18.949.219l-18.963.1.684-.684V321.35l-.615-.615h9.379l9.42.164Z" transform="translate(-30.592 54.293)"/><path class="e" d="M74.79,336.117l-18.8.383-9.57.15c-3.186.068-6.385,0-9.57.082h-.6V319.41h.684l18.963.1c6.316,0,12.633.15,18.949.219h.383v.369c0,2.734-.123,5.469-.178,8.094Zm0,0-.191-8.094c0-2.666-.15-5.3-.178-7.93l.369.383c-6.316.068-12.633.219-18.949.219l-18.963.082.684-.684-.068,16.023-.615-.6c3.131,0,6.248,0,9.379.068l9.42.15Z" transform="translate(-36.25 59.72)"/><path class="e" d="M269.535,175.267l-18.8.383-9.57.15c-3.185.068-6.385,0-9.57.082h-.574v-.615l-.082-16.023v-.684h.684l18.963.082c6.316,0,12.633.164,18.949.232h.383v.369c0,2.734-.123,5.469-.178,8.094Zm0,0-.191-8.094c0-2.734-.15-5.3-.178-7.93l.369.369c-6.316.082-12.633.219-18.949.232l-18.963.082.684-.684-.068,16.023-.615-.615c3.131,0,6.248,0,9.379.082l9.42.15Z" transform="translate(35.234 0.66)"/><path class="e" d="M253.819,190.05l-18.8.383-9.57.15c-3.185,0-6.385,0-9.57.068h-.6v-.615l-.068-16.023v-.684h.684l18.963.082c6.316,0,12.646.15,18.963.219h.369V174c0,2.734-.123,5.469-.178,8.094Zm0,0-.191-8.094c-.068-2.666-.164-5.3-.191-7.93l.383.369c-6.316,0-12.646.219-18.963.219l-18.963.1.684-.684-.068,16.023-.615-.615c3.131,0,6.248,0,9.379.082l9.433.15Z" transform="translate(29.458 6.084)"/><path class="e" d="M473.663,336.117l-18.8.383-9.57.15c-3.185.068-6.385,0-9.57.082h-.615v-.615l-.068-16.023v-.684h.7l18.949.1c6.33,0,12.646.15,18.963.219h.369v.369c0,2.734-.109,5.469-.178,8.094Zm0,0-.191-8.094c0-2.666-.15-5.3-.178-7.93l.369.383c-6.316.068-12.633.219-18.963.219l-18.949.082.684-.684-.082,16.023-.6-.6c3.117,0,6.234,0,9.379.068l9.42.15Z" transform="translate(110.173 59.72)"/><path class="e" d="M458.193,58.889l-18.8.383-9.57.15H419.638v-.615l-.068-16.023V42.1h.7l18.949.082c6.316,0,12.646.164,18.963.232h.369v.369c0,2.734-.109,5.469-.178,8.094Zm0,0L458,50.8c-.068-2.734-.15-5.3-.178-7.93l.369.369c-6.316,0-12.646.219-18.963.232l-18.949.082.684-.684-.082,16.023-.6-.615c3.117,0,6.234,0,9.379.082l9.42.15Z" transform="translate(104.493 -42.1)"/><path class="e" d="M473.663,73.665l-18.8.369-9.57.164H435.108v-.6l-.068-16.023V56.89h.7l18.949.082c6.33,0,12.646.15,18.963.219h.369v.369c0,2.734-.109,5.469-.178,8.094Zm0,0-.191-8.094c0-2.734-.15-5.3-.178-7.93l.369.369c-6.316,0-12.633.219-18.963.219l-18.949.1.684-.684-.082,16.023-.6-.615c3.117,0,6.234,0,9.379.082l9.42.15Z" transform="translate(110.173 -36.67)"/><path class="e" d="M74.79,58.889l-18.8.383-9.57.15H36.25V42.1h.684l18.963.082c6.316,0,12.633.164,18.949.232h.383v.369c0,2.734-.123,5.469-.178,8.094Zm0,0L74.6,50.8c0-2.734-.15-5.3-.178-7.93l.369.369c-6.316,0-12.633.219-18.949.232l-18.963.082.684-.684-.068,16.023-.615-.615c3.131,0,6.248,0,9.379.082l9.42.15Z" transform="translate(-36.25 -42.1)"/><path class="e" d="M238.074,175.267l-18.8.383-9.57.15c-3.186.068-6.385,0-9.57.082h-.615V158.56h.684l18.949.082c6.33,0,12.646.164,18.963.232h.342v.369c0,2.734-.109,5.469-.178,8.094Zm0,0-.191-8.094c-.068-2.734-.15-5.3-.178-7.93l.369.369c-6.316.082-12.633.219-18.963.232l-18.949.082.684-.684-.082,16.023-.6-.615c3.117,0,6.234,0,9.379.082l9.42.15Z" transform="translate(23.698 0.66)"/><rect class="f" width="65.269" height="65.269" transform="translate(107.514 165.674) rotate(90)"/><rect class="a" width="45.021" height="45.021" transform="translate(97.397 175.791) rotate(90)"/><path class="e" d="M119.581,170.68H74.56V215.7Z" transform="translate(-22.184 5.111)"/><rect class="g" width="6.385" height="65.269" transform="translate(42.246 230.928) rotate(180)"/><rect class="f" width="65.269" height="65.269" transform="translate(188.3 165.674) rotate(90)"/><rect class="a" width="45.021" height="45.021" transform="translate(178.183 175.791) rotate(90)"/><path class="e" d="M165.45,170.68h-31.8v31.8Z" transform="translate(-0.488 5.111)"/><rect class="g" width="6.385" height="65.269" transform="translate(123.045 230.928) rotate(180)"/><rect class="f" width="85.298" height="146.055" transform="translate(188.314 246.555) rotate(90)"/><rect class="a" width="64.202" height="124.727" transform="translate(177.65 257.096) rotate(90)"/><path class="e" d="M156.72,230.16H74.95v42.081Z" transform="translate(-22.041 26.95)"/><rect class="g" width="6.385" height="85.298" transform="translate(42.246 331.853) rotate(180)"/><rect class="f" width="146.055" height="146.055" transform="translate(188.3 4.402) rotate(90)"/><rect class="a" width="124.74" height="124.727" transform="translate(52.909 15.053)"/><path class="e" d="M75,142.919C93.894,124.052,147.624,70.6,164.878,53.11H75Z" transform="translate(-22.022 -38.057)"/><rect class="g" width="6.385" height="146.055" transform="translate(42.246 150.457) rotate(180)"/></g><g transform="translate(51.863 547.57)"><ellipse class="e" cx="276.619" cy="30.009" rx="276.619" ry="30.009"/></g><g transform="translate(340.157 46.489)"><path class="h" d="M497.535,45.31H280.5A22.162,22.162,0,0,0,258.54,67.677V514.495A22.175,22.175,0,0,0,280.5,536.862H497.535a22.189,22.189,0,0,0,21.984-22.367V67.677A22.175,22.175,0,0,0,497.535,45.31Zm8.2,455.377c.055,11.771-8.682,21.341-19.619,21.341H291.981c-10.937,0-19.687-9.57-19.687-21.273V84.616c0-23.953,8.8-25.129,19.687-25.129h38.9c2.256,0,4.1,2.57,4.1,5.756V66.61c0,7.465,4.1,7.492,9.105,7.492h89.96c5.059,0,9.092,0,9.092-7.492V65.243c0-3.186,1.832-5.756,4.1-5.756h38.882c10.869,0,19.674,3.186,19.674,25.129Z" transform="translate(-258.539 -45.31)"/><path class="a" d="M370.017,60.361H345.408a1.5,1.5,0,0,1-1.517-1.5h0a1.5,1.5,0,0,1,1.518-1.518h24.609a1.5,1.5,0,0,1,1.518,1.518h0a1.5,1.5,0,0,1-1.518,1.5Z" transform="translate(-227.201 -40.893)"/><path class="a" d="M502.1,80.809v416.07c0,11.771-8.736,21.341-19.674,21.341H288.291c-10.937,0-19.7-9.57-19.7-21.273V80.809c0-23.953,8.8-25.129,19.7-25.129h38.882c2.256,0,4.1,2.57,4.1,5.756V62.8c0,7.465,4.1,7.492,9.105,7.492h89.946c5.059,0,9.105,0,9.105-7.492V61.436c0-3.186,1.818-5.756,4.1-5.756h38.9C493.366,55.68,502.1,58.852,502.1,80.809Z" transform="translate(-254.849 -41.502)"/><g class="i" transform="translate(12.839 40.486)"><path class="j" d="M498.593,418.314a51.15,51.15,0,0,1-3.158,12.3,18.785,18.785,0,0,1-12.947,5.332H288.145c-10.937,0-19.715-9.57-19.715-21.287V302.556a75.741,75.741,0,0,1,27.63-17.992c23.31-8.709,48.548-5.168,62.411,7.027,20.508,18.047,51.515,66.759,69.124,67.73,1.2.068,2.6.15,4.1.287,12.756,1.025,36.367,4.539,51.952,17.554C494.232,385.8,501.108,398.846,498.593,418.314Z" transform="translate(-267.746 0.281)"/><path class="h" d="M482.671,438.14H288.328c-11.252,0-20.4-9.857-20.4-21.97V311.089l.15-.191a144.636,144.636,0,0,1,11.99-13.4A75.713,75.713,0,0,1,295.9,285.454c29.462-16.8,63.956-10.541,79.022,4.908,6.945,7.123,14.834,18.2,23.174,29.927,11.853,16.652,24.117,33.878,34.179,40.236a15.4,15.4,0,0,0,5.974,2.42c12.892,1.682,31.336,5.687,46.005,15.135,8.832,5.674,15.121,12.66,18.676,20.767v17.322a22.722,22.722,0,0,1-6.945,16.529A19.565,19.565,0,0,1,482.671,438.14ZM269.3,311.553V416.169c0,11.361,8.531,20.6,19.031,20.6H482.671A18.156,18.156,0,0,0,495.14,431.7a21.369,21.369,0,0,0,6.521-15.531V399.244c-3.459-7.807-9.57-14.547-18.1-20.043-14.451-9.31-32.689-13.262-45.445-14.93a16.844,16.844,0,0,1-6.535-2.625c-10.322-6.494-22.654-23.83-34.589-40.591-8.312-11.689-16.174-22.722-23.05-29.777-14.7-15.039-48.466-21.136-77.354-4.662a74.237,74.237,0,0,0-15.558,11.826A144.172,144.172,0,0,0,269.3,311.553Z" transform="translate(-267.93 -1.292)"/><path class="j" d="M339.074,89.137c5.934,9.57,2.734,21.013-3.5,24.527s-17.035,10.514-18.635,14.834-11.73,15.217-24.486,8.941-11.334-28.259-5.7-41.712C294.189,77.981,322.791,62.724,339.074,89.137Z" transform="translate(-262.539 -74.923)"/><path class="h" d="M299.217,140.725a17.924,17.924,0,0,1-9.133-2.57c-13-7.629-9.351-30.078-2.734-42.765,5.469-10.719,18.429-18.812,30.078-18.84h0c7.109,0,17.008,2.816,23.994,16.242h0a20.945,20.945,0,0,1,1.367,16.31,14.56,14.56,0,0,1-7.082,8.723c-8.2,3.855-17.568,9.228-19.14,12.715-1.23,2.652-5.879,7.451-11.963,9.351a17.991,17.991,0,0,1-5.387.834Zm18.17-62.808h0c-11.129,0-23.515,7.807-28.82,18.088-6.576,12.769-9.447,34.1,2.256,41.015a15.955,15.955,0,0,0,13.371,1.613c5.687-1.777,10.008-6.193,11.129-8.613,2.174-4.676,14.6-10.937,19.851-13.371a13.207,13.207,0,0,0,6.357-7.93,19.619,19.619,0,0,0-1.3-15.244h0c-6.74-12.865-16.119-15.558-22.845-15.558Z" transform="translate(-263 -74.326)"/><path class="f" d="M397.552,133.949c-25.634,4.771-37.05,25.2-28.847,36.162s36.777,10.76,42.04,26.564,24.951,39.32,45.458,23.447S452.417,123.75,397.552,133.949Z" transform="translate(-231.892 -53.578)"/><path class="h" d="M434.684,231.715a21.082,21.082,0,0,1-8.586-1.859c-11.388-4.977-19.783-19.386-22.2-31.035-1.859-8.955-11.648-13.877-21.109-18.621-7.4-3.719-14.383-7.219-17.445-12.51-2.6-4.484-2.42-10.172.465-15.6,4.211-7.889,15.039-16.748,32.99-17.937v0c37.679-2.488,51.679,32.675,55.07,43.517,6.836,21.875,3.965,43.9-6.535,50.216A24.609,24.609,0,0,1,434.684,231.715Zm-35.792-96.194c-17.349,1.148-27.836,9.652-31.869,17.213-2.734,5.072-2.885,10.144-.492,14.273,2.857,4.935,9.666,8.353,16.871,11.963,9.762,4.908,19.851,9.967,21.875,19.564,2.352,11.32,10.459,25.279,21.41,30.078,6.453,2.816,13.18,2.187,19.988-1.9,9.98-6,12.592-27.343,5.92-48.63-3.309-10.6-16.967-44.994-53.661-42.56Z" transform="translate(-232.836 -53.222)"/></g><g transform="translate(57.176 21.834)"><path class="g" d="M308.768,62.975l-.369.369-.219.219a5.031,5.031,0,0,0-3.609-1.5,5.086,5.086,0,0,0-3.637,1.5l-.205-.205-.369-.383h0l.465-.41a5.877,5.877,0,0,1,1.107-.711,5.469,5.469,0,0,1,1.449-.478,7.041,7.041,0,0,1,.725-.1h1.135a5.031,5.031,0,0,1,1.367.314,5.466,5.466,0,0,1,.9.424,4.84,4.84,0,0,1,.861.6Z" transform="translate(-300.36 -61.28)"/><path class="g" d="M301.808,64.305l-.588-.588a4.279,4.279,0,0,1,6.057,0l-.6.6a3.363,3.363,0,0,0-2.434-1.012,3.418,3.418,0,0,0-2.434,1Z" transform="translate(-300.044 -60.846)"/><path class="g" d="M305.768,64.443l-.6.6a1.749,1.749,0,0,0-2.488,0c-.191-.205-.4-.4-.588-.588a2.6,2.6,0,0,1,3.678-.014Z" transform="translate(-299.725 -60.396)"/><path class="g" d="M304.106,65.213a.533.533,0,0,1-.533.533.547.547,0,0,1-.533-.533.533.533,0,0,1,.533-.533.52.52,0,0,1,.533.533Z" transform="translate(-299.376 -60.032)"/></g><path class="g" d="M279.71,63.765a1.531,1.531,0,1,1,.448,1.1,1.545,1.545,0,0,1-.448-1.1Z" transform="translate(-250.766 -39.101)"/><path class="g" d="M283.27,63.772a1.545,1.545,0,1,1,.457,1.1A1.559,1.559,0,0,1,283.27,63.772Z" transform="translate(-249.459 -39.109)"/><path class="g" d="M286.84,63.765a1.545,1.545,0,1,1,.467,1.107,1.545,1.545,0,0,1-.467-1.107Z" transform="translate(-248.148 -39.101)"/><path class="g" d="M290.41,63.765a1.545,1.545,0,1,1,1.545,1.545A1.545,1.545,0,0,1,290.41,63.765Z" transform="translate(-246.837 -39.101)"/><path class="g" d="M294,63.772a1.559,1.559,0,1,1,1.545,1.545A1.559,1.559,0,0,1,294,63.772Z" transform="translate(-245.519 -39.109)"/><path class="g" d="M429.775,67.179h-12.3V61.71h12.3Zm-11.963-.342h11.621V61.983H417.812Z" transform="translate(-200.185 -39.288)"/><rect class="g" width="8.121" height="3.855" transform="translate(218.187 23.201)"/><rect class="g" width="1.121" height="3.117" transform="translate(229.74 23.556)"/><path class="f" d="M344.528,359.473a3.459,3.459,0,1,1-1.008-2.455,3.459,3.459,0,0,1,1.008,2.455Z" transform="translate(-229.507 68.766)"/><path class="k" d="M360.9,359.946a5.236,5.236,0,1,1-5.236-5.236,5.236,5.236,0,0,1,5.236,5.236Z" transform="translate(-224.8 68.292)"/><path class="f" d="M372.758,359.473a3.459,3.459,0,1,1-1.008-2.455,3.459,3.459,0,0,1,1.008,2.455Z" transform="translate(-219.142 68.766)"/><path class="k" d="M334.12,190.543V180.317a.943.943,0,0,1,.943-.957.957.957,0,0,1,.971.957v9.256h4.758a.957.957,0,1,1,0,1.914h-5.674a.943.943,0,0,1-1-.943Z" transform="translate(-230.788 3.909)"/><path class="k" d="M350.452,180.959a6.385,6.385,0,0,1,0,8.777,5.687,5.687,0,0,1-4.1,1.846,5.879,5.879,0,0,1-4.252-1.846,6.494,6.494,0,0,1,0-8.777,5.8,5.8,0,0,1,4.252-1.859,5.592,5.592,0,0,1,4.1,1.859Zm-.219,4.389a4.512,4.512,0,0,0-1.189-3.035,3.732,3.732,0,0,0-5.537,0,4.389,4.389,0,0,0-1.189,3.035,4.266,4.266,0,0,0,1.189,3.008,3.678,3.678,0,0,0,5.537,0,4.388,4.388,0,0,0,1.189-3.008Z" transform="translate(-228.486 3.814)"/><path class="k" d="M351.14,185.362a6.33,6.33,0,0,1,6.4-6.262,6.4,6.4,0,0,1,3.951,1.367.984.984,0,0,1-1.2,1.559,4.621,4.621,0,0,0-2.734-.93,4.266,4.266,0,0,0-3.117,1.271,4.1,4.1,0,0,0,0,5.988,4.265,4.265,0,0,0,3.117,1.271,4.8,4.8,0,0,0,2.379-.656v-2.379h-2.475a1,1,0,0,1-1-.984.971.971,0,0,1,1-.971H360.9a.971.971,0,0,1,1.012.971v3.828a1.534,1.534,0,0,1,0,.287.287.287,0,0,0,0,.1h0a.862.862,0,0,1-.328.424,6.4,6.4,0,0,1-3.937,1.367,6.3,6.3,0,0,1-6.508-6.248Z" transform="translate(-224.539 3.813)"/><path class="k" d="M362,180.317a.943.943,0,0,1,.957-.957.957.957,0,0,1,.971.957v10.226a.957.957,0,0,1-.971.943.943.943,0,0,1-.957-.943Z" transform="translate(-220.552 3.909)"/><path class="k" d="M367.637,190.514a.957.957,0,0,1-.943.943.943.943,0,0,1-.943-.943V180.438h0a.916.916,0,0,1,.369-.807.971.971,0,0,1,1.367.219l5.592,7.738v-7.137a.957.957,0,0,1,.943-.943.971.971,0,0,1,.957.943v10.076a.957.957,0,0,1-.957.943.943.943,0,0,1-.711-.342l-.1-.109-5.537-7.7Z" transform="translate(-219.176 3.939)"/><path class="h" d="M288.37,216.47v-5.66a.52.52,0,0,1,.52-.52h3.076a.533.533,0,0,1,.533.52.547.547,0,0,1-.533.547h-2.584v1.75h2.228a.533.533,0,0,1,0,1.066h-2.228v1.764h2.584a.533.533,0,1,1,0,1.053h-3.131A.52.52,0,0,1,288.37,216.47Z" transform="translate(-247.586 15.265)"/><path class="h" d="M296.439,213.7v2.3a.492.492,0,0,1-.506.506.52.52,0,0,1-.52-.506v-2.3a.971.971,0,0,0-.984-.957.984.984,0,0,0-.971.984v2.365h0a.56.56,0,0,1-.479.3h-.1a.547.547,0,0,1-.424-.506v-2.27h0V212.14a.506.506,0,0,1,.52-.52.478.478,0,0,1,.451.287,2.105,2.105,0,0,1,1.025-.287,2.051,2.051,0,0,0,3.008,0,2,2,0,0,1,2,2.01V215.9a.506.506,0,0,1-.506.506.52.52,0,0,1-.52-.506v-2.27a.971.971,0,0,0-.971-.984,1,1,0,0,0-1.025,1.053Z" transform="translate(-246.085 15.754)"/><path class="h" d="M303.3,214.1v1.873a.5.5,0,0,1-1,.1,2.228,2.228,0,0,1-2.912-.287,2.5,2.5,0,0,1,0-3.377,2.187,2.187,0,0,1,2.912-.287.506.506,0,0,1,.492-.424.519.519,0,0,1,.506.52Zm-1.012,0a1.368,1.368,0,0,0-.369-.984,1.2,1.2,0,0,0-.9-.4,1.148,1.148,0,0,0-.889.4,1.541,1.541,0,0,0,0,1.969,1.176,1.176,0,0,0,.889.369,1.23,1.23,0,0,0,.9-.369,1.477,1.477,0,0,0,.369-.984Z" transform="translate(-243.782 15.779)"/><path class="h" d="M304.489,211a.519.519,0,0,1-.52.533.533.533,0,0,1-.52-.533v-.191a.52.52,0,0,1,.52-.52.506.506,0,0,1,.52.52Zm0,1.736v3.732a.52.52,0,1,1-1.039,0v-3.732a.52.52,0,1,1,1.039,0Z" transform="translate(-242.05 15.265)"/><path class="h" d="M305.843,210.29a.519.519,0,0,1,.533.52v5.66a.52.52,0,0,1-.533.52.533.533,0,0,1-.533-.52v-5.66A.533.533,0,0,1,305.843,210.29Z" transform="translate(-241.367 15.265)"/><path class="h" d="M290.6,242.766h-1.176v2.078a.547.547,0,0,1-.547.533.533.533,0,0,1-.52-.533v-5.7a.519.519,0,0,1,.52-.533H290.6a2.051,2.051,0,0,1,0,4.1Zm-1.176-1.066H290.6a.984.984,0,1,0,0-1.969h-1.176Z" transform="translate(-247.59 25.664)"/><path class="h" d="M296.566,242.456v1.887a.52.52,0,0,1-.506.506.561.561,0,0,1-.506-.41,2.215,2.215,0,0,1-2.9-.287,2.5,2.5,0,0,1-.656-1.7,2.42,2.42,0,0,1,.656-1.682,2.215,2.215,0,0,1,1.627-.725,2.146,2.146,0,0,1,1.271.424.547.547,0,0,1,.506-.424.52.52,0,0,1,.506.52Zm-1.012,0a1.367,1.367,0,0,0-.383-.984,1.176,1.176,0,0,0-.889-.4,1.148,1.148,0,0,0-.889.4,1.49,1.49,0,0,0,0,1.969,1.189,1.189,0,0,0,.889.383,1.2,1.2,0,0,0,.889-.383A1.367,1.367,0,0,0,295.555,242.456Z" transform="translate(-246.254 26.192)"/><path class="h" d="M296.569,243.482a.506.506,0,0,1,.725-.082,1.859,1.859,0,0,0,1.053.424,1.367,1.367,0,0,0,.656-.191.4.4,0,0,0,.164-.287.109.109,0,0,0,0-.1.246.246,0,0,0-.123-.109,2.283,2.283,0,0,0-.766-.273h0a3.951,3.951,0,0,1-.834-.246,1.613,1.613,0,0,1-.656-.561,1.107,1.107,0,0,1-.164-.6,1.367,1.367,0,0,1,.561-1.053,2.064,2.064,0,0,1,1.189-.355,2.434,2.434,0,0,1,1.436.533.547.547,0,0,1,.15.711.506.506,0,0,1-.711.123,1.682,1.682,0,0,0-.875-.342,1.039,1.039,0,0,0-.588.164.287.287,0,0,0-.15.219v.082c0,.082,0,0,.1.1a2.024,2.024,0,0,0,.711.232h0a3.759,3.759,0,0,1,.889.287,1.367,1.367,0,0,1,.683.561,1.285,1.285,0,0,1,.178.629,1.367,1.367,0,0,1-.6,1.121,2.228,2.228,0,0,1-1.244.383,2.734,2.734,0,0,1-1.709-.67A.506.506,0,0,1,296.569,243.482Z" transform="translate(-244.616 26.192)"/><path class="h" d="M299.952,243.482a.492.492,0,0,1,.711-.082,1.9,1.9,0,0,0,1.066.424,1.23,1.23,0,0,0,.643-.191.383.383,0,0,0,.178-.287.192.192,0,0,0,0-.1.328.328,0,0,0-.123-.109,2.283,2.283,0,0,0-.766-.273h0a3.718,3.718,0,0,1-.834-.246,1.531,1.531,0,0,1-.656-.561,1.107,1.107,0,0,1-.164-.6,1.367,1.367,0,0,1,.561-1.053,2.024,2.024,0,0,1,1.176-.355,2.407,2.407,0,0,1,1.435.533.533.533,0,0,1,.164.711.506.506,0,0,1-.711.123,1.723,1.723,0,0,0-.889-.342.985.985,0,0,0-.574.164.287.287,0,0,0-.15.219.15.15,0,0,0,0,.082.425.425,0,0,0,.109.1,1.927,1.927,0,0,0,.7.232h0a3.962,3.962,0,0,1,.889.287,1.367,1.367,0,0,1,.684.561,1.285,1.285,0,0,1,.178.629,1.367,1.367,0,0,1-.6,1.121,2.27,2.27,0,0,1-1.244.383,2.734,2.734,0,0,1-1.709-.67.479.479,0,0,1-.068-.7Z" transform="translate(-243.378 26.192)"/><path class="h" d="M309.5,240.778l-1.586,3.719v.082h-.643a.192.192,0,0,1,0-.082l-.711-1.654-.67,1.654v.082h0v.068h-.574v-.082l-1.572-3.719a.478.478,0,0,1,.273-.656.465.465,0,0,1,.629.287l1.135,2.584.67-1.613a.506.506,0,0,1,.465-.3.492.492,0,0,1,.479.3l.684,1.613,1.121-2.584a.478.478,0,0,1,.643-.287A.506.506,0,0,1,309.5,240.778Z" transform="translate(-241.959 26.23)"/><path class="h" d="M309.79,244.152a2.433,2.433,0,0,1-.67-1.7,2.461,2.461,0,0,1,.67-1.668,2.229,2.229,0,0,1,1.641-.738,2.092,2.092,0,0,1,1.6.738,2.352,2.352,0,0,1,.67,1.668,2.324,2.324,0,0,1-.67,1.7,2.133,2.133,0,0,1-1.6.725A2.256,2.256,0,0,1,309.79,244.152Zm.383-1.7a1.6,1.6,0,0,0,.342,1.025,1.362,1.362,0,0,0,1.8,0,1.545,1.545,0,0,0,.369-1.025,1.477,1.477,0,0,0-.369-1,1.367,1.367,0,0,0-.889-.355,1.436,1.436,0,0,0-.916.355,1.518,1.518,0,0,0-.342,1Z" transform="translate(-239.968 26.192)"/><path class="h" d="M316.473,240.56a.519.519,0,0,1-.506.52.93.93,0,0,0-.574.178,1.367,1.367,0,0,0-.437.465,3.172,3.172,0,0,0-.4.793v1.832a.52.52,0,0,1-1.039,0V240.56a.52.52,0,1,1,1.039,0v.068a1.368,1.368,0,0,1,.205-.191,2.092,2.092,0,0,1,1.2-.369.492.492,0,0,1,.506.492Z" transform="translate(-238.352 26.189)"/><path class="h" d="M320.855,244.835a.533.533,0,0,1-.519.52.52.52,0,0,1-.506-.41,2.379,2.379,0,1,1-1.367-4.389,2.146,2.146,0,0,1,1.271.41V239.12a.533.533,0,0,1,1.053,0v3.787h0Zm-2.324-3.227a1.217,1.217,0,0,0-.9.383,1.367,1.367,0,0,0,0,1.928,1.217,1.217,0,0,0,.9.383,1.19,1.19,0,0,0,.889-.383,1.367,1.367,0,0,0,0-1.928,1.189,1.189,0,0,0-.889-.383Z" transform="translate(-237.375 25.687)"/><path class="l" d="M287.64,274.49l22.668-.205,22.681-.068,45.349-.137,45.349.137,22.681.068,22.668.205-22.668.191-22.681.068-45.349.137-45.349-.137-22.681-.068Z" transform="translate(-247.854 38.687)"/><path class="e" d="M287.64,203.786l22.668-.191,22.681-.068,45.349-.137,45.349.137,22.681.068,22.668.191-22.668.205-22.681.068-45.349.137-45.349-.137-22.681-.068Z" transform="translate(-247.854 12.732)"/><path class="k" d="M394.32,190.125a50.777,50.777,0,1,1,22.134-57.068A50.831,50.831,0,0,1,394.32,190.125Z" transform="translate(-237.136 -26.639)"/><circle class="a" cx="15.449" cy="15.449" r="15.449" transform="matrix(0.997, -0.082, 0.082, 0.997, 113.801, 100.381)"/><path class="a" d="M387.855,167.225v6.385a50.831,50.831,0,0,1-53.415,0v-6.357a26.714,26.714,0,0,1,53.415,0Z" transform="translate(-230.671 -10.124)"/><path class="l" d="M287.64,322.92q9.3-.232,18.566-.314l18.58-.1,18.58.1q9.269.082,18.566.314-9.3.232-18.566.314l-18.58.1-18.58-.15Q296.937,323.18,287.64,322.92Z" transform="translate(-247.854 56.469)"/><path class="l" d="M366,322.92q9.283-.232,18.58-.314l18.566-.1,18.58.1q9.283.082,18.58.314-9.283.232-18.58.314l-18.58.1-18.593-.15Q375.269,323.18,366,322.92Z" transform="translate(-219.083 56.469)"/><path class="l" d="M350.82,325.19a2.475,2.475,0,0,1-.67-1.723,2.529,2.529,0,0,1,.67-1.7,2.3,2.3,0,0,1,1.682-.752,2.133,2.133,0,0,1,1.627.752,2.42,2.42,0,0,1,.684,1.7,2.365,2.365,0,0,1-.684,1.723,2.119,2.119,0,0,1-1.627.738,2.283,2.283,0,0,1-1.682-.739Zm.4-1.723a1.545,1.545,0,0,0,.355,1.039,1.358,1.358,0,0,0,1.832,0,1.49,1.49,0,0,0,.383-1.039,1.449,1.449,0,0,0-.383-1.012,1.321,1.321,0,0,0-1.832,0,1.49,1.49,0,0,0-.356,1.012Z" transform="translate(-224.903 55.922)"/><path class="l" d="M357.635,321.547a.52.52,0,0,1-.506.52.943.943,0,0,0-.588.178,1.5,1.5,0,0,0-.451.479,2.817,2.817,0,0,0-.4.82v1.846a.533.533,0,0,1-.547.52.52.52,0,0,1-.506-.52v-3.842a.506.506,0,0,1,.492-.547.52.52,0,0,1,.547.506v.068a.9.9,0,0,1,.205-.191,2.065,2.065,0,0,1,1.23-.383.492.492,0,0,1,.52.547Z" transform="translate(-223.255 55.914)"/><rect class="l" width="14.355" height="14.355" transform="translate(122.636 392.063)"/><path class="a" d="M352.444,340.276H350.53v-2.2H352.4v-2.16a2.42,2.42,0,0,1,2.146-2.324,17.447,17.447,0,0,1,2.393,0v1.941h-.861a4.864,4.864,0,0,0-.779,0,.711.711,0,0,0-.6.7v1.736h2.187c-.1.711-.178,1.367-.273,2.051a.7.7,0,0,1-.273.137h-1.627v5.633h-2.324Z" transform="translate(-224.763 60.523)"/><rect class="k" width="93.337" height="29.681" transform="translate(83.07 331.894)"/><path class="a" d="M338.37,304.361v-8.039a.752.752,0,1,1,1.5,0V303.6h3.705a.752.752,0,0,1,0,1.5h-4.457a.752.752,0,0,1-.752-.738Z" transform="translate(-229.228 46.578)"/><path class="a" d="M351.226,296.789a5.045,5.045,0,0,1,0,6.9,4.471,4.471,0,0,1-3.268,1.449,4.594,4.594,0,0,1-3.336-1.449,5.086,5.086,0,0,1,0-6.9,4.594,4.594,0,0,1,3.336-1.449,4.47,4.47,0,0,1,3.268,1.449Zm-.178,3.459a3.541,3.541,0,0,0-.93-2.393,2.939,2.939,0,0,0-4.361,0,3.472,3.472,0,0,0-.93,2.393,3.4,3.4,0,0,0,.93,2.365,2.912,2.912,0,0,0,4.361,0,3.473,3.473,0,0,0,.984-2.365Z" transform="translate(-227.428 46.493)"/><path class="a" d="M351.75,300.263a5.031,5.031,0,0,1,8.135-3.855.766.766,0,0,1,.15,1.094.793.793,0,0,1-1.107.123,3.486,3.486,0,0,0-2.146-.738,3.391,3.391,0,0,0-2.461,1,3.254,3.254,0,0,0,0,4.717,3.391,3.391,0,0,0,2.461,1,3.773,3.773,0,0,0,1.873-.52v-1.873H356.7a.779.779,0,0,1-.779-.766.766.766,0,0,1,.779-.765h2.734a.766.766,0,0,1,.793.766v3.008a1.179,1.179,0,0,1,0,.232v.068h0a.643.643,0,0,1-.26.328,5.045,5.045,0,0,1-8.121-3.828Z" transform="translate(-224.315 46.492)"/><path class="a" d="M360.25,296.292a.738.738,0,0,1,.752-.752.766.766,0,0,1,.766.752v8.08a.752.752,0,0,1-.766.738.725.725,0,0,1-.752-.738Z" transform="translate(-221.194 46.567)"/><path class="a" d="M364.72,304.332a.752.752,0,0,1-1.49,0v-7.916h0a.738.738,0,0,1,.3-.629.752.752,0,0,1,1.039.164l4.4,6.084V296.43a.738.738,0,0,1,.725-.738.752.752,0,0,1,.752.738v7.9a.752.752,0,0,1-.752.738.711.711,0,0,1-.547-.273.137.137,0,0,1-.068-.082l-4.361-6.043Z" transform="translate(-220.1 46.606)"/><rect class="e" width="181.41" height="16.064" transform="translate(39.786 239.077)"/><path class="m" d="M292.712,225.147a.26.26,0,0,1,.273-.273.273.273,0,0,1,.287.273v3.1a1.75,1.75,0,1,0,3.5,0v-3.1a.287.287,0,0,1,.574,0v3.1a2.324,2.324,0,1,1-4.635,0Z" transform="translate(-245.995 20.615)"/><path class="m" d="M297.742,229.367a.26.26,0,0,1,.383,0,2.994,2.994,0,0,0,1.75.67,1.682,1.682,0,0,0,1.08-.355.848.848,0,0,0,.424-.7.889.889,0,0,0-.41-.7,2.884,2.884,0,0,0-1.2-.41h0a3.3,3.3,0,0,1-1.3-.438,1.217,1.217,0,0,1-.615-1.025,1.449,1.449,0,0,1,.615-1.121,2.475,2.475,0,0,1,1.367-.383,3.062,3.062,0,0,1,1.7.615.287.287,0,0,1,.082.4.273.273,0,0,1-.383.082,2.529,2.529,0,0,0-1.367-.561,1.75,1.75,0,0,0-1.08.314.861.861,0,0,0-.355.656.67.67,0,0,0,.328.574,2.734,2.734,0,0,0,1.162.383h0a4,4,0,0,1,1.367.465,1.367,1.367,0,0,1,0,2.311,2.215,2.215,0,0,1-1.367.465,3.5,3.5,0,0,1-2.105-.82.26.26,0,0,1-.068-.424Z" transform="translate(-244.175 20.633)"/><path class="m" d="M301.89,227.767a2.816,2.816,0,0,1,2.734-2.857,2.734,2.734,0,0,1,2.734,2.652h0a.26.26,0,0,1-.273.26h-4.635a2.229,2.229,0,0,0,2.2,2.188,2.133,2.133,0,0,0,1.832-1.039.273.273,0,0,1,.369-.1.287.287,0,0,1,.1.4,2.734,2.734,0,0,1-2.3,1.3,2.8,2.8,0,0,1-2.762-2.8Zm.588-.451h4.307a2.188,2.188,0,0,0-2.133-1.846,2.229,2.229,0,0,0-2.174,1.791Z" transform="translate(-242.622 20.633)"/><path class="m" d="M307.18,225.167a.287.287,0,0,1,.3-.287.273.273,0,0,1,.26.287v1.244l.082-.137a2.734,2.734,0,0,1,2.283-1.367.28.28,0,0,1,0,.561,2.064,2.064,0,0,0-1.654.93,5.059,5.059,0,0,0-.684,1.367.15.15,0,0,0,0,.1v2.488a.273.273,0,0,1-.26.287.287.287,0,0,1-.3-.287Z" transform="translate(-240.68 20.622)"/><path class="m" d="M314.962,227.184a1.75,1.75,0,0,0-1.764-1.75,1.791,1.791,0,0,0-1.764,1.75v3.144a.176.176,0,0,1-.205.232h-.068a.355.355,0,0,1-.191-.15h0v-5.182a.287.287,0,0,1,.287-.287.273.273,0,0,1,.26.287v.547a2.3,2.3,0,0,1,4.1,1.477v3.09a.273.273,0,1,1-.547,0Z" transform="translate(-239.288 20.629)"/><path class="m" d="M321.061,225.157v5.127a.3.3,0,0,1-.287.287.287.287,0,0,1-.273-.287v-.848a2.734,2.734,0,0,1-2.146,1.135,2.857,2.857,0,0,1,0-5.7,2.735,2.735,0,0,1,2.146,1.121v-.834a.273.273,0,0,1,.273-.287.287.287,0,0,1,.287.287Zm-.561,2.557a2.146,2.146,0,1,0-2.146,2.3,2.229,2.229,0,0,0,2.147-2.228Z" transform="translate(-237.554 20.619)"/><path class="m" d="M329.488,227.169a1.791,1.791,0,0,0-1.764-1.764,1.764,1.764,0,0,0-1.75,1.764v3.145h0a.3.3,0,0,1-.137.15.314.314,0,0,1-.15,0h-.15v-3.158a1.764,1.764,0,1,0-3.514,0v3.1a.232.232,0,0,1-.123.219.123.123,0,0,1-.068,0h-.109a.287.287,0,0,1-.232-.219v-5.2a.273.273,0,0,1,.26-.273.26.26,0,0,1,.273.273v.547a2.3,2.3,0,0,1,3.787.4,2.365,2.365,0,0,1,2.051-1.217,2.311,2.311,0,0,1,2.31,2.31v3.1a.273.273,0,1,1-.547,0Z" transform="translate(-235.426 20.644)"/><path class="m" d="M329.171,227.762a2.736,2.736,0,1,1,5.469-.205h0a.273.273,0,0,1-.287.26H329.69a2.228,2.228,0,0,0,2.2,2.188,2.133,2.133,0,0,0,1.832-1.039.287.287,0,0,1,.383-.1.3.3,0,0,1,.082.4,2.734,2.734,0,0,1-2.3,1.3A2.8,2.8,0,0,1,329.171,227.762Zm.588-.451h4.32a2.2,2.2,0,0,0-2.146-1.846,2.229,2.229,0,0,0-2.174,1.791Z" transform="translate(-232.607 20.638)"/><path class="m" d="M338.384,223.091a4.1,4.1,0,0,1,4.1,4.1,3.924,3.924,0,0,1-.438,1.859,1.9,1.9,0,0,1-1.053.889.711.711,0,0,1-.232,0,.807.807,0,0,1-.656-.314.984.984,0,0,1-.191-.561v-.4a1.983,1.983,0,0,1-1.49.7,2.187,2.187,0,0,1,0-4.361,2.105,2.105,0,0,1,2.051,2.16v1.859h0a.464.464,0,0,0,.068.26.246.246,0,0,0,.205.082h.1a1.176,1.176,0,0,0,.67-.6,3.254,3.254,0,0,0,.383-1.6,3.5,3.5,0,1,0-3.486,3.514,3.034,3.034,0,0,0,.861-.1.26.26,0,0,1,.328.205.246.246,0,0,1-.191.328,3.992,3.992,0,0,1-1,.137,4.1,4.1,0,1,1,0-8.2Zm0,5.66a1.531,1.531,0,1,0-1.072-.492,1.545,1.545,0,0,0,1.072.492Z" transform="translate(-230.719 19.951)"/><path class="m" d="M351.067,227.169a1.764,1.764,0,1,0-3.527,0v3.145h0a.274.274,0,0,1-.15.15.232.232,0,0,1-.137,0h-.15v-3.158a1.764,1.764,0,1,0-3.514,0v3.1a.232.232,0,0,1-.123.219h-.123a.342.342,0,0,1-.232-.219v-5.2a.287.287,0,0,1,.273-.273.26.26,0,0,1,.273.273v.547a2.3,2.3,0,0,1,3.787.4,2.365,2.365,0,0,1,2.051-1.217,2.311,2.311,0,0,1,2.311,2.31v3.1a.287.287,0,0,1-.287.273.273.273,0,0,1-.26-.273Z" transform="translate(-227.488 20.644)"/><path class="m" d="M355.988,225.157v5.127a.3.3,0,0,1-.287.287.287.287,0,0,1-.273-.287v-.848a2.734,2.734,0,0,1-2.133,1.135,2.857,2.857,0,0,1,0-5.7,2.734,2.734,0,0,1,2.133,1.121v-.834a.273.273,0,0,1,.273-.287.287.287,0,0,1,.287.287Zm-.561,2.557a2.146,2.146,0,1,0-2.133,2.3,2.215,2.215,0,0,0,2.133-2.228Z" transform="translate(-224.725 20.619)"/><path class="m" d="M356.332,223.814a.287.287,0,1,1,.56,0v.26a.287.287,0,1,1-.561,0Zm0,1.859a.273.273,0,0,1,.273-.287.287.287,0,0,1,.287.287V230.8a.287.287,0,1,1-.561,0Z" transform="translate(-222.635 20.103)"/><path class="m" d="M358.592,223.364a.28.28,0,0,1,.561,0v7.574a.287.287,0,1,1-.561,0Z" transform="translate(-221.806 19.965)"/><path class="m" d="M361.16,228.19a.574.574,0,0,1,.574.574.588.588,0,1,1-1.162,0,.574.574,0,0,1,.588-.574Z" transform="translate(-221.079 21.838)"/><path class="m" d="M362.13,227.764a2.871,2.871,0,0,1,2.926-2.844,2.967,2.967,0,0,1,1.818.629.26.26,0,0,1,0,.383.287.287,0,0,1-.383,0,2.324,2.324,0,1,0-1.463,4.1,2.406,2.406,0,0,0,1.463-.506.287.287,0,0,1,.383,0,.26.26,0,0,1,0,.4,2.926,2.926,0,0,1-4.717-2.242Z" transform="translate(-220.504 20.637)"/><path class="m" d="M369.665,224.871a2.857,2.857,0,1,1-2.734,2.844,2.734,2.734,0,0,1,2.734-2.844Zm0,5.141a2.3,2.3,0,1,0-2.133-2.3,2.228,2.228,0,0,0,2.133,2.3Z" transform="translate(-218.742 20.618)"/><path class="m" d="M380.55,227.169a1.791,1.791,0,0,0-1.764-1.764,1.764,1.764,0,0,0-1.75,1.764v3.145h0a.3.3,0,0,1-.137.15.315.315,0,0,1-.15,0h-.15v-3.158a1.764,1.764,0,1,0-3.514,0v3.1a.232.232,0,0,1-.123.219h-.109a.287.287,0,0,1-.232-.219v-5.2a.273.273,0,0,1,.26-.273.26.26,0,0,1,.273.273v.547a2.3,2.3,0,0,1,3.787.4,2.365,2.365,0,0,1,2.051-1.217,2.311,2.311,0,0,1,2.31,2.31v3.1a.274.274,0,0,1-.273.273.287.287,0,0,1-.273-.273Z" transform="translate(-216.653 20.644)"/><rect class="e" width="181.41" height="16.064" transform="translate(39.786 277.863)"/><path class="m" d="M294.127,255.132l-1.066.725a.328.328,0,0,1-.178.068.246.246,0,0,1-.232-.246.232.232,0,0,1,.164-.219l1.189-.574-1.189-.561a.26.26,0,0,1-.164-.219.246.246,0,0,1,.232-.246.233.233,0,0,1,.178.068l1.066.711-.1-1.258a.232.232,0,1,1,.465,0l-.1,1.258,1.066-.711a.242.242,0,0,1,.41.178.232.232,0,0,1-.164.219l-1.189.561,1.189.574a.219.219,0,0,1,.164.219.246.246,0,0,1-.232.246.328.328,0,0,1-.178-.068l-1.066-.725.1,1.271a.232.232,0,0,1-.465,0Z" transform="translate(-246.015 31.002)"/><path class="m" d="M297.777,255.14l-1.053.725a.369.369,0,0,1-.191.068.246.246,0,0,1-.232-.246.232.232,0,0,1,.164-.219l1.2-.574-1.2-.561a.26.26,0,0,1-.164-.219.246.246,0,0,1,.232-.246.26.26,0,0,1,.191.068l1.053.711-.1-1.258a.246.246,0,0,1,.232-.26.232.232,0,0,1,.232.26l-.082,1.258,1.053-.711a.26.26,0,0,1,.191-.068.242.242,0,0,1,.068.465l-1.2.561,1.2.574a.219.219,0,0,1,.15.219.246.246,0,0,1-.219.246.328.328,0,0,1-.191-.068l-1.053-.725.082,1.271a.219.219,0,0,1-.232.246.232.232,0,0,1-.232-.246Z" transform="translate(-244.675 30.995)"/><path class="m" d="M301.368,255.132l-1.066.725a.327.327,0,0,1-.178.068.246.246,0,0,1-.123-.246.232.232,0,0,1,.164-.219l1.189-.574-1.189-.561a.26.26,0,0,1-.164-.219.246.246,0,0,1,.232-.246.233.233,0,0,1,.178.068l1.066.711-.1-1.258a.232.232,0,0,1,.465,0l-.1,1.258,1.053-.711a.3.3,0,0,1,.191-.068.246.246,0,0,1,.232.246.232.232,0,0,1-.164.219l-1.189.561,1.189.574a.219.219,0,0,1,.164.219.246.246,0,0,1-.232.246.41.41,0,0,1-.191-.068l-1.053-.725.1,1.271a.232.232,0,0,1-.465,0Z" transform="translate(-243.317 31.002)"/><path class="m" d="M305.087,255.14l-1.053.725a.369.369,0,0,1-.191.068.246.246,0,0,1-.232-.246.232.232,0,0,1,.164-.219l1.2-.574-1.2-.561a.26.26,0,0,1-.164-.219.246.246,0,0,1,.232-.246.26.26,0,0,1,.191.068l1.053.711-.1-1.258a.246.246,0,0,1,.232-.26.232.232,0,0,1,.232.26l-.082,1.258,1.053-.711a.26.26,0,0,1,.191-.068.242.242,0,0,1,.068.465l-1.2.561,1.2.574a.219.219,0,0,1,.15.219.246.246,0,0,1-.219.246.328.328,0,0,1-.191-.068l-1.053-.725.082,1.271a.219.219,0,0,1-.232.246.232.232,0,0,1-.232-.246Z" transform="translate(-241.991 30.995)"/><path class="m" d="M308.747,255.132l-1.066.725a.328.328,0,0,1-.178.068.246.246,0,0,1-.232-.246.232.232,0,0,1,.164-.219l1.189-.574-1.189-.561a.26.26,0,0,1-.164-.219.246.246,0,0,1,.232-.246.233.233,0,0,1,.178.068l1.066.711-.1-1.258a.232.232,0,1,1,.465,0l-.1,1.258,1.053-.711a.274.274,0,0,1,.191-.068.246.246,0,0,1,.232.246.232.232,0,0,1-.164.219l-1.189.561,1.189.574a.219.219,0,0,1,.164.219.246.246,0,0,1-.232.246.369.369,0,0,1-.191-.068l-1.053-.725.1,1.271a.232.232,0,0,1-.465,0Z" transform="translate(-240.647 31.002)"/><path class="m" d="M312.411,255.143l-1.053.725a.369.369,0,0,1-.191.068.246.246,0,0,1-.232-.246.232.232,0,0,1,.164-.219l1.2-.574-1.258-.574a.26.26,0,0,1-.164-.219.246.246,0,0,1,.232-.246.26.26,0,0,1,.191.068l1.053.711-.1-1.258a.234.234,0,1,1,.465,0l-.082,1.258,1.053-.711a.246.246,0,0,1,.178-.068.238.238,0,0,1,.068.465l-1.189.561,1.189.574a.219.219,0,0,1,.164.219.246.246,0,0,1-.232.246.328.328,0,0,1-.178-.068l-1.053-.725.082,1.271a.219.219,0,0,1-.232.246.232.232,0,0,1-.232-.246Z" transform="translate(-239.322 30.991)"/><path class="m" d="M316.057,255.132l-1.066.725a.328.328,0,0,1-.178.068.246.246,0,0,1-.232-.246.232.232,0,0,1,.164-.219l1.189-.574-1.189-.561a.26.26,0,0,1-.164-.219.246.246,0,0,1,.233-.246.233.233,0,0,1,.178.068l1.066.711-.1-1.258a.232.232,0,0,1,.465,0l-.1,1.258,1.053-.711a.274.274,0,0,1,.191-.068.246.246,0,0,1,.232.246.232.232,0,0,1-.164.219l-1.2.561,1.2.574a.219.219,0,0,1,.164.219.246.246,0,0,1-.232.246.369.369,0,0,1-.191-.068l-1.053-.725.1,1.271a.232.232,0,0,1-.465,0Z" transform="translate(-237.963 31.002)"/><path class="m" d="M319.707,255.14l-1.053.725a.369.369,0,0,1-.191.068.246.246,0,0,1-.233-.246.232.232,0,0,1,.164-.219l1.2-.574-1.2-.561a.26.26,0,0,1-.164-.219.246.246,0,0,1,.232-.246.26.26,0,0,1,.191.068l1.053.711-.1-1.258a.234.234,0,1,1,.465,0l-.082,1.258,1.053-.711a.246.246,0,0,1,.178-.068.233.233,0,0,1,.232.246.246.246,0,0,1-.15.219l-1.2.561,1.2.574a.232.232,0,0,1,.15.219.246.246,0,0,1-.232.246.328.328,0,0,1-.178-.068l-1.053-.725.082,1.271a.219.219,0,0,1-.232.246.232.232,0,0,1-.232-.246Z" transform="translate(-236.623 30.995)"/></g><g transform="translate(36.879 537.357)"><path class="h" d="M36.71,405.034l72.9-.328,72.9-.123,145.809-.232,145.795.232,72.911.123,72.9.328-72.9.342-72.911.123-145.795.219L182.5,405.485l-72.9-.109Z" transform="translate(-36.71 -404.35)"/></g><g transform="translate(532.174 414.682)"><path class="h" d="M415.294,346.63c19.605,19.14,22.886,48.876,18.758,74.88-.109.588-1.012.424-1.012-.123,0-5.92.178-11.785.15-17.636-.1-.26-.191-.52-.3-.779-5.113-3.732-9.816-7.93-12.728-13.672-3.281-6.439-4.566-13.672-7.068-20.426-.232-.643.451-.451.9-.123,11.922,8.791,15.722,18.252,19.14,30.9a105.828,105.828,0,0,0-2.078-19.687c-2.584-12-7.67-23.884-16.3-32.812C414.46,346.808,414.952,346.288,415.294,346.63Z" transform="translate(-393.827 -302.909)"/><path class="k" d="M416.778,353c-3.377.109-5.469,5.469-8.121,7.068a2.516,2.516,0,0,1-3.719-.574c-2.6-3.637.971-8.121,4.334-10.637-2.406,1-4.4,2.734-6.986,3.227a2.447,2.447,0,0,1-3.158-1.9c-1.148-4.949,5.072-7.15,9.338-7.26-2.064-1.435-8-5.346-4.84-7.26s10.131,3.65,12.4,5.469c3.336,2.734,7.314,6.74,7.465,10.937C423.682,357.076,419.361,354.041,416.778,353Z" transform="translate(-398.988 -307.039)"/><path class="n" d="M416.778,353c-3.377.109-5.469,5.469-8.121,7.068a2.516,2.516,0,0,1-3.719-.574c-2.6-3.637.971-8.121,4.334-10.637-2.406,1-4.4,2.734-6.986,3.227a2.447,2.447,0,0,1-3.158-1.9c-1.148-4.949,5.072-7.15,9.338-7.26-2.064-1.435-8-5.346-4.84-7.26s10.131,3.65,12.4,5.469c3.336,2.734,7.314,6.74,7.465,10.937C423.682,357.076,419.361,354.041,416.778,353Z" transform="translate(-398.988 -307.039)"/><path class="k" d="M416.452,352.615c-4.307-1.969-12.592.861-13.3-.779-1.367-3.322,5.2-5.592,8.764-6.043-3.281-.889-9.57-2.311-9.392-5.469.232-3.869,9.666-.533,14.437,3.117,6.016,4.621,5.975,9.064,4.99,9.953C420.581,354.611,417.163,352.929,416.452,352.615Z" transform="translate(-397.693 -305.818)"/><path class="h" d="M453.384,345.233c-20.316,18.429-24.732,47.974-21.588,74.114.082.588,1,.465,1.012-.082.232-5.92.273-11.785.52-17.636l.328-.766c5.25-3.527,10.117-7.547,13.248-13.193,3.514-6.3,5.072-13.508,7.834-20.138.26-.629-.437-.465-.9-.15-12.3,8.326-16.406,17.636-20.3,30.078a104.5,104.5,0,0,1,2.83-19.592c3.021-11.894,8.572-23.584,17.527-32.156C454.286,345.452,453.739,344.946,453.384,345.233Z" transform="translate(-387.279 -303.413)"/><path class="k" d="M451.806,351.644c3.363.246,5.277,5.715,7.834,7.383a2.529,2.529,0,0,0,3.746-.451c2.734-3.527-.656-8.2-3.924-10.773,2.365,1.08,4.293,2.885,6.836,3.473a2.434,2.434,0,0,0,3.226-1.764c1.367-4.908-4.8-7.355-9.064-7.615,2.119-1.367,8.2-5.031,5.127-7.082s-10.281,3.281-12.619,5.031c-3.432,2.57-7.56,6.453-7.861,10.678C444.71,355.39,449.14,352.505,451.806,351.644Z" transform="translate(-382.064 -307.376)"/><path class="n" d="M451.806,351.644c3.363.246,5.277,5.715,7.834,7.383a2.529,2.529,0,0,0,3.746-.451c2.734-3.527-.656-8.2-3.924-10.773,2.365,1.08,4.293,2.885,6.836,3.473a2.434,2.434,0,0,0,3.226-1.764c1.367-4.908-4.8-7.355-9.064-7.615,2.119-1.367,8.2-5.031,5.127-7.082s-10.281,3.281-12.619,5.031c-3.432,2.57-7.56,6.453-7.861,10.678C444.71,355.39,449.14,352.505,451.806,351.644Z" transform="translate(-382.064 -307.376)"/><path class="k" d="M450.835,351.179c4.389-1.791,12.564,1.367,13.33-.26,1.545-3.268-4.977-5.8-8.531-6.371,3.322-.766,9.666-1.941,9.57-5.127-.082-3.883-9.638-.9-14.547,2.57-6.193,4.375-6.316,8.832-5.359,9.748C446.638,353.025,450.124,351.48,450.835,351.179Z" transform="translate(-382.147 -306.187)"/><path class="h" d="M436.411,399.334a198.027,198.027,0,0,1-6.3,29.148.725.725,0,0,1-1.367-.287c1.367-8.982,3.773-17.773,5.1-26.783a133.985,133.985,0,0,0,1.572-27.48c-.861-15.135-4.977-31.226-14.847-43.066-.219-.287.246-.684.465-.424,19.714,23.05,16.556,51.378,16.556,53.853,2.8-9.57,5.687-20.508,16.269-30.2.451-.424.807-.219.738.492-1.9,17.691-6.836,26.933-17.076,36.394Q437.094,395.206,436.411,399.334Z" transform="translate(-391.087 -308.843)"/><path class="k" d="M424.958,339.3c-3.555-1.586-8.463,2.939-11.976,3.254a2.926,2.926,0,0,1-3.568-2.475c-.875-5.086,5.086-7.943,9.844-8.859-2.994-.178-5.934.615-8.873-.178a2.8,2.8,0,0,1-2.352-3.6c1.367-5.715,8.873-4.881,13.344-2.844-1.367-2.529-5.592-9.57-1.367-9.967s8.682,8.9,10.117,11.949c2.092,4.484,4.184,10.678,2.215,15.135C430.085,346.994,427.173,341.676,424.958,339.3Z" transform="translate(-395.712 -314.621)"/><path class="n" d="M424.958,339.3c-3.555-1.586-8.463,2.939-11.976,3.254a2.926,2.926,0,0,1-3.568-2.475c-.875-5.086,5.086-7.943,9.844-8.859-2.994-.178-5.934.615-8.873-.178a2.8,2.8,0,0,1-2.352-3.6c1.367-5.715,8.873-4.881,13.344-2.844-1.367-2.529-5.592-9.57-1.367-9.967s8.682,8.9,10.117,11.949c2.092,4.484,4.184,10.678,2.215,15.135C430.085,346.994,427.173,341.676,424.958,339.3Z" transform="translate(-395.712 -314.621)"/><path class="k" d="M424.422,339.242c-3.486-4.211-13.508-5.469-13.412-7.492.191-4.17,8.2-3.2,12.127-1.859-2.967-2.584-8.791-7.232-6.986-10.418,2.188-3.91,10.308,4.293,13.412,10.5,3.924,7.807,1.641,12.414.164,12.838C427.69,343.385,425,339.926,424.422,339.242Z" transform="translate(-394.575 -313.213)"/><path class="k" d="M453.567,384.732l8.668,66.622H409.23c1.094-5.906,10.937-66.7,10.937-66.7Z" transform="translate(-395.228 -288.909)"/></g><g transform="translate(40.667 206.562)"><path class="h" d="M253.025,334.031a1.449,1.449,0,0,1-1.367,1.367l-5.92-.232c-3.814-14.287-8.34-25.8-7.3-21.383a70.86,70.86,0,0,1,1.477,21.123l-11.676-.656c-2.01-24.609-5.975-43.2-6.193-37.624-.9,22.463-2.98,29.49-5.332,36.982-28.177-1.668-65.091-4.238-91.737-6.685-1.654-13.672-2.816-28.423-3.391-27.466-4.43,7.178-6.576,18.019-7.547,26.441-8.476-.834-15.23-1.654-19.332-2.365,0,0-.793-11.443-.684-15.176a77.779,77.779,0,0,1,5.947-27.822c3.814-9.064,9.57-16.83,15.039-24.814a1,1,0,0,1,.123-.178s0,0,0-.068a79.3,79.3,0,0,0,8.914-16.679.26.26,0,0,0,0-.123,78.257,78.257,0,0,0,3.609-13.152c2.98-16.406,13.781-29.654,29.75-32.388,29.066-18.99,60.319-9.789,66.991,12.3.643,2.16,1.217,4.607,1.75,7.273v.082c1.982,9.844,3.363,22.5,4.826,32.334h0v.109h0a90.086,90.086,0,0,0,2.311,11.416C239.052,274.723,254.925,286.275,253.025,334.031Z" transform="translate(-19.458 -154.882)"/><path class="h" d="M151.138,193.206c-10.746,4.225-17.773,11.32-20.658,23.242-1.668,6.918-2.857,13.672-6.248,20.07s-8.5,11.689-13.672,16.8c-8.2,8.2-14.082,16.488-16.406,28.191s-3.322,26.1-.465,37.72H93.8c-2.092-11.7-.506-27.425,2.734-39.115,3.609-12.824,11.881-20.275,20.508-29.408a54.687,54.687,0,0,0,13.945-25.5c1.367-5.865,1.955-12.072,4.949-17.431,3.568-6.385,9.721-10.049,15.777-13.234a.729.729,0,0,0-.574-1.34Z" transform="translate(-20.219 -151.102)"/><path class="h" d="M213.132,269c-6.193-10.1-12.824-18.867-15.8-30.912-2.734-10.937-3.719-22.394-6.494-33.359a.137.137,0,1,0-.273,0c4.033,19.386,3.185,38.431,13.672,55.48,5.674,9.269,11.416,17.9,14.67,28.628a92.243,92.243,0,0,1,3.227,34.644c0,.41.492.451.574,0A76.22,76.22,0,0,0,213.132,269Z" transform="translate(15.991 -146.9)"/><path class="o" d="M272.594,232.045,234.6,303.589c-1.367,2.037-.7,4.1,1.5,4.676l39.361,9.693a6.59,6.59,0,0,0,6.467-2.734l37.994-71.544c1.367-2.037.684-4.1-1.5-4.676l-39.361-9.68a6.562,6.562,0,0,0-6.467,2.721Z" transform="translate(31.901 -137.852)"/><path class="l" d="M276.013,232.858,238.019,304.4c-1.367,2.037-.684,4.1,1.518,4.676l39.361,9.693a6.549,6.549,0,0,0,6.453-2.734l37.994-71.558c1.367-2.037.7-4.1-1.5-4.676l-39.361-9.68a6.562,6.562,0,0,0-6.467,2.734Z" transform="translate(33.158 -137.558)"/><path class="h" d="M274.709,237.756a3.445,3.445,0,1,1-.341-2.617A3.445,3.445,0,0,1,274.709,237.756Z" transform="translate(44.401 -136.317)"/><path class="p" d="M145.655,313.875c16.406,51.419,59.226,121.008,80.307,124.057,10.035,1.449,27.671,6.207,42.382-3.609,32.087-21.437,64.079-64.257,74-89.208,3.719-9.338-44.953-41.343-53.046-34.275C270.34,327.383,246.319,361.6,243.435,361c-10.7-2.242-48.384-43-74.647-71.667C136.891,254.526,139.12,293.381,145.655,313.875Z" transform="translate(-1.966 -120.904)"/><path class="p" d="M304.22,309.308c0-20.726-3.144-26.058,6.18-43.544,6.125-11.471,1.367-20.3-9.762-12.7-18.293,12.441-23.953,39.169-23.242,49.013Z" transform="translate(47.853 -130.145)"/><path class="p" d="M298.956,369.607s15.627-24.923,17.855-47.017c1.531-15.271,1.176-48.89-35.751-76.015-8.764-6.439-25.812-9.392-15.326,6.316,7.451,11.156,15.558,15.982,18.7,23.242,0,0-22.121-1.176-28.232,7.848A201.865,201.865,0,0,0,242,308.727a42,42,0,0,0,4.389,3.076s-5.469,8.641-1.873,23.775Z" transform="translate(34.878 -133.392)"/><path class="p" d="M320.381,302.26c-4.662-6.562-14.765-20.316-26.933-28.711-13.535-9.3-42.1-23.556-48.849-13.494-4.949,7.369,5.469,13.767,5.469,13.767s-13.043-3.4-16.064,4.238c-2.734,6.959,5.605,11.43,5.605,11.43s-8.2-.711-9.57,6.508c-1.641,8.682,15.969,8.736,21.875,18.963C253.267,317.217,320.381,302.26,320.381,302.26Z" transform="translate(30.447 -127.801)"/><path class="h" d="M280.674,284.865c-5.4-5.469-20.822-14.7-35.642-15.8-.328,0-.533.219-.232.3A161.121,161.121,0,0,1,280.578,285C280.592,285.042,280.674,284.933,280.674,284.865Z" transform="translate(35.852 -123.229)"/><path class="h" d="M273.693,294.082c-5.141-4.225-21.451-13.043-36.5-13.672-.342,0-.52.246-.219.314a172.262,172.262,0,0,1,36.64,13.48C273.693,294.259,273.762,294.136,273.693,294.082Z" transform="translate(32.975 -119.062)"/><path class="k" d="M169.484,380.5l41.794-52.335s-33.263-36.695-54.523-51.952c-11.908-8.517-18.689.615-17.008,13.74C145.654,335.926,169.484,380.5,169.484,380.5Z" transform="translate(-2.759 -121.819)"/><path class="k" d="M169.484,380.5l41.794-52.335s-33.263-36.695-54.523-51.952c-11.908-8.517-18.689.615-17.008,13.74C145.654,335.926,169.484,380.5,169.484,380.5Z" transform="translate(-2.759 -121.819)"/><path class="a" d="M197.952,313.642a3.678,3.678,0,1,0,3.453,3.671A3.678,3.678,0,0,0,197.952,313.642Zm0,6.713a3.035,3.035,0,1,1,3.021-3.021,3.035,3.035,0,0,1-3.021,3.021Zm-33.783,4.607a3.664,3.664,0,1,0,3.664,3.664A3.664,3.664,0,0,0,164.169,324.962Zm0,6.685a3,3,0,1,0,0-.041Zm2.666-35.984a3.671,3.671,0,1,0,0-.041Zm0,6.713a3.042,3.042,0,1,0,0-.041ZM139.642,280.42a2.018,2.018,0,0,1-.068.629,3.035,3.035,0,0,1,.1,5.769v.629a3.664,3.664,0,0,0-.109-7.027ZM189.885,352.2a3.664,3.664,0,1,0-3.664,3.924,3.728,3.728,0,0,0,.561,0l.7-.861a2.968,2.968,0,0,1-1.258.273,3.049,3.049,0,1,1,3.049-3.049,3.143,3.143,0,0,1,0,.615Z" transform="translate(-2.735 -119.058)"/><path class="n" d="M206.494,334.078l-37,46.388s-23.843-44.583-29.75-90.493c-1.162-9.023,1.7-16.146,7.437-16.953Z" transform="translate(-2.759 -121.775)"/><path class="h" d="M194.6,309.848c-7.1,7.519-25.744,28.478-36.093,43.749-.068.1.26.369.328.287,10.514-11.348,29.832-35.451,36.244-43.558C195.2,310.067,194.732,309.711,194.6,309.848Z" transform="translate(4.217 -108.264)"/><path class="k" d="M50.23,455.329l180.234-.424L220.5,392.931s14.26-17.295,11.566-36.052c-2.967-20.508-40.031-72.679-43.148-75.618-12.551-11.771-25.839-13.89-38.6-9.638h0C91.354,308.673,50.23,455.329,50.23,455.329Z" transform="translate(-35.534 -123.03)"/><path class="a" d="M224.188,430.881a3.038,3.038,0,1,1-2.324-4.99,2.926,2.926,0,0,1,1.6.465l-.123-.779a3.527,3.527,0,0,0-1.477-.314,3.678,3.678,0,1,0,2.447,6.412Zm-36.38-18.949a3.678,3.678,0,1,0,3.664,3.678A3.678,3.678,0,0,0,187.808,411.932Zm0,6.713a3.052,3.052,0,1,1,0,.014ZM216.519,352.3a8.208,8.208,0,1,0,.027.014Zm0,6.713a1.549,1.549,0,1,1,.027.014ZM84.4,445.141a3.678,3.678,0,1,0,3.454,3.671,3.678,3.678,0,0,0-3.454-3.671Zm0,6.713a10.449,10.449,0,1,0,.027-.041Zm37.351-18.771a2.649,2.649,0,1,0,.027-.041Zm0,6.7a10.771,10.771,0,1,0,.027-.041Zm-28.2-99.53a3.2,3.2,0,0,0-.52,0l-.383.725a3.267,3.267,0,0,1,.9-.137,3.035,3.035,0,1,1-2.871,3.951l-.383.752a3.664,3.664,0,1,0,3.254-5.332Zm10.322,28.082a3.664,3.664,0,1,0,3.65,3.65,3.664,3.664,0,0,0-3.65-3.65Zm0,6.685a3.035,3.035,0,1,1,3.021-3.035,3.035,3.035,0,0,1-3.021,3.035Zm30.173-82.987a3.678,3.678,0,1,0,3.371,1.768A3.678,3.678,0,0,0,134.037,292.032Zm0,6.713a3.049,3.049,0,1,1,2.165-.888,3.049,3.049,0,0,1-2.165.888Zm3.637,56.915a3.664,3.664,0,1,0,2.6,1.068,3.678,3.678,0,0,0-2.6-1.068Zm0,6.713a3.035,3.035,0,1,1,2.16-.889A3.035,3.035,0,0,1,137.674,362.372Zm31.294-78.558a3.628,3.628,0,1,0,.04,0Zm0,6.7a3,3,0,1,1,.041,0Zm28.15,8.682a3.644,3.644,0,1,0,.041,0Zm0,6.713a3.006,3.006,0,1,1,.041,0Zm-12.3,135.527a3.718,3.718,0,1,1-.027,0Zm0,6.713a3.019,3.019,0,1,0-.027,0Zm-33.523-30.625a3.672,3.672,0,1,1-.027,0Zm0,6.685a3.017,3.017,0,1,1-.027.027Zm39.58-50.8a3.672,3.672,0,1,1-.027,0Zm0,6.7a3.027,3.027,0,1,0-.027,0Zm3.623-51.57a3.664,3.664,0,1,0,3.664,3.664A3.664,3.664,0,0,0,194.494,328.535Zm0,6.685a3,3,0,1,0,0-.041Zm25.4,53.005a3.664,3.664,0,0,0-1.449,7.014l-.123-.779a3.021,3.021,0,0,1,1.572-5.605,2.6,2.6,0,0,1,.738.1l.355-.561a3.6,3.6,0,0,0-1.094-.205ZM172.045,349a2.916,2.916,0,1,0,.014-.041Zm0,6.7a4.739,4.739,0,1,0,.014-.041ZM77.9,388.185a3.664,3.664,0,1,0,2.621,1.049,3.664,3.664,0,0,0-2.621-1.049Zm0,6.685a3.035,3.035,0,1,1,3.021-3.035A3.035,3.035,0,0,1,77.9,394.87ZM151.264,451.2a3.664,3.664,0,0,0-3.664,3.5h.643a3.019,3.019,0,0,1,6.029-.014h.643a3.664,3.664,0,0,0-3.65-3.486ZM122.95,393.886a3.664,3.664,0,1,0,3.664,3.65,3.664,3.664,0,0,0-3.664-3.65Zm0,6.685a3.021,3.021,0,1,1,2.15-.885A3.035,3.035,0,0,1,122.95,400.571Zm1.818-73.937a3.664,3.664,0,1,0,2.608,1.063,3.664,3.664,0,0,0-2.608-1.063Zm0,6.685a3.035,3.035,0,1,1,2.8-1.452A3.035,3.035,0,0,1,124.768,333.32ZM59.745,419.889a3.776,3.776,0,0,0-.7.068l-.246.711a3.089,3.089,0,0,1,.943-.15,3.049,3.049,0,1,1,0,6.084,2.994,2.994,0,0,1-2.529-1.367l-.246.711a3.636,3.636,0,0,0,2.734,1.3,3.678,3.678,0,1,0,0-7.342Zm39.88-6.07a3.755,3.755,0,1,1-.014,0Zm0,6.7a3.12,3.12,0,1,0-.014,0Zm58.351-35.369a3.674,3.674,0,1,1-.014,0Zm0,6.685a3.028,3.028,0,1,0-.014,0Zm-9.57-120.8a2.94,2.94,0,0,1-2.2,1.2h0l-.848.588a3.166,3.166,0,0,0,.629,0,3.691,3.691,0,0,0,3.336-2.133Zm11.32,40.742a3.662,3.662,0,1,0,.055,0Zm0,6.713a3.037,3.037,0,1,1,.055,0Z" transform="translate(-33.059 -122.631)"/><path class="h" d="M166.129,296.47c3.486,5.8,7.342,11.4,10.937,17.117-1.463-4.1-2.912-8.107-4.525-12.1,0-.082.082-.15.123-.068a84.667,84.667,0,0,1,6.234,15.039,116.206,116.206,0,0,1,7.287,13.467,53.648,53.648,0,0,1,4.881,17.637,45.362,45.362,0,0,1-2.557,18.156,117.055,117.055,0,0,1-9.133,19.209c-.465.82-1.6.068-1.217-.752,5.113-10.937,10.76-22.367,10.254-34.726s-6.207-23.488-11.785-34.084a169.149,169.149,0,0,0-10.937-18.7C165.514,296.456,165.938,296.21,166.129,296.47Z" transform="translate(6.844 -113.206)"/><path class="h" d="M165.571,356.351a149.745,149.745,0,0,0-21.875,3.6c-3.568.916-7.068,1.982-10.555,3.131-1.75.574-3.5,1.094-5.264,1.6a23.979,23.979,0,0,1-5.633,1.066.137.137,0,0,0,0,.26,40.168,40.168,0,0,0,5.469-.1,39.144,39.144,0,0,0,5.168-.984c3.623-.889,7.2-1.955,10.828-2.885,7.287-1.873,14.574-3.746,21.984-5.086C165.995,356.9,165.913,356.31,165.571,356.351Z" transform="translate(-9.127 -91.179)"/><path class="h" d="M177.07,361.356a163.311,163.311,0,0,0-18.279-.875c-3.062,0-6.084.246-9.133.547q-2.174.205-4.348.492c-1.586.205-3.158.615-4.758.793-.164,0-.164.287,0,.273,1.5-.137,3.035,0,4.553,0l4.566-.123c3.049,0,6.084-.109,9.133-.219,6.1-.205,12.168-.342,18.265-.342A.275.275,0,0,0,177.07,361.356Z" transform="translate(-2.415 -89.664)"/><path class="p" d="M132.625,287.155c-45.951,48.056-102.989,148.611-91.7,168.613,12.578,22.285,78.257-45.814,76.179-49.1-1.764-2.734,21.629-63.724,38.281-108.006S143.972,275.206,132.625,287.155Z" transform="translate(-39.481 -122.266)"/><path class="k" d="M66.47,344.791l65.911,11.867s16.406-46.716,19.728-72.638c1.818-14.533-6.713-15.135-17.459-7.41C97.04,303.639,66.47,344.791,66.47,344.791Z" transform="translate(-29.571 -122.262)"/><path class="a" d="M84.7,339.851a3.664,3.664,0,1,0,3.664,3.65A3.664,3.664,0,0,0,84.7,339.851Zm0,6.685a3.035,3.035,0,1,1,3.021-3.035,3.035,3.035,0,0,1-3.021,3.035Zm40.5-54.906a3.678,3.678,0,1,0,3.371,1.768A3.678,3.678,0,0,0,125.2,291.631Zm0,6.713a3.049,3.049,0,1,1,2.165-.888,3.049,3.049,0,0,1-2.165.888Zm-28.806,7.684a3.718,3.718,0,0,0-1.6.369h0l-1.7,1.709h0a3.541,3.541,0,0,0-.355,1.572,3.678,3.678,0,1,0,3.664-3.664Zm0,6.713a3.035,3.035,0,1,1,2.16-.889,3.049,3.049,0,0,1-2.16.889ZM126.17,356.49l.766.137a.534.534,0,0,1,.137-.109l.328-.93a3.391,3.391,0,0,0-1.23.889Zm-10.24-30.242a1.523,1.523,0,1,0,0-.014Zm0,6.685a3.035,3.035,0,1,1,2.8-1.452A3.035,3.035,0,0,1,115.93,332.934Zm20.836-60.47h.424a3.637,3.637,0,0,0,2.119-.684,12.918,12.918,0,0,0-2.543.67Z" transform="translate(-24.222 -122.23)"/><path class="h" d="M129.338,328.877c-9.994-2.666-37.3-9.105-55.589-10.937-.109,0-.205.4-.1.424,15.039,3.855,45.363,9.379,55.548,11.17C129.392,329.52,129.516,328.959,129.338,328.877Z" transform="translate(-26.952 -105.282)"/><path class="h" d="M108.81,343.8c2.734.26,5.469.588,8.121.943l-.574.342q2.953-10.76,6.494-21.355c2.352-7.041,4.826-14.054,7.67-20.972-1.723,7.26-3.8,14.41-6,21.506s-4.607,14.164-7.246,21.2l-.164.424-.4-.082C114.087,345.142,111.449,344.5,108.81,343.8Z" transform="translate(-14.025 -110.855)"/><path class="h" d="M121.5,315.257a20.233,20.233,0,0,1,2.242-4.1,30.231,30.231,0,0,1,2.98-3.7,8.2,8.2,0,0,1-.779,2.269,14.561,14.561,0,0,1-1.189,2.051A15.627,15.627,0,0,1,121.5,315.257Z" transform="translate(-9.366 -109.133)"/><path class="p" d="M41.914,423.348c12.455,13.48,41.206,12.441,113.817,16.625,10.049.574,33.209-69.233,22.5-70.4-13.467-1.477-66.089-4.279-69.958-3.992C75.614,367.951,33.478,414.216,41.914,423.348Z" transform="translate(-38.989 -87.795)"/><path class="p" d="M141.694,367.55s30.584.438,46.579,5.633c21.424,6.959,37.05,21.793,43.216,28.41C244.382,415.387,266,457.646,254.909,466c-10.049,7.56-29.955-36.763-29.955-36.763s27.754,41.835,14,48.726-33.906-45.9-33.906-45.9,27.562,43.626,12.3,48.48c-11.566,3.664-32.552-43.093-32.552-43.093s23.433,37.666,11.689,41.945c-12.961,4.73-35.041-37.214-35.041-37.214-31.664,5.852-49.136-4.307-60.7-13.015C97.849,427.063,141.694,367.55,141.694,367.55Z" transform="translate(-17.036 -87.067)"/><path class="h" d="M185.268,401.655c3.445,4.785,6.959,9.57,9.953,14.711s5.838,10.281,8.34,15.627c6.166,13.1,7.984,22.271,7.807,21.711-4.1-13.1-14.56-31.445-17.568-36.558s-5.728-10.308-8.723-15.394C184.981,401.628,185.186,401.532,185.268,401.655Z" transform="translate(13.968 -74.565)"/><path class="h" d="M171.687,409.331c4.1,6.316,8.449,12.428,12.3,18.922s6.836,12.947,10.267,19.66c.26.52-.109.492-.383,0-3.65-6.576-7.519-12.3-11.238-18.894s-7.178-13.207-11.115-19.578A.1.1,0,0,1,171.687,409.331Z" transform="translate(8.997 -71.741)"/><path class="h" d="M158.892,413.829c6.836,9.338,11.867,19.906,16.6,30.392.232.52-.232.438-.506-.082-5.318-10.213-9.433-18.252-16.406-30.078C158.455,413.883,158.742,413.637,158.892,413.829Z" transform="translate(4.237 -70.1)"/><path class="h" d="M70.5,377.176c4.375-3.555,16.912-12.2,30.31-11.812.15,0,.178.205,0,.219-10.855,1.258-25.689,8.668-30.2,11.771a.109.109,0,0,1-.109-.178Z" transform="translate(-28.102 -87.874)"/><path class="p" d="M130.05,284.285c.246,3.172,11.785,25.265,25.867,26.769,4.58.479,8.312-24.431,8.312-24.431l.7-1.777,9.734-24.869-27.261-24.1-3.978-3.254s-2.215,6.986-4.881,15.709c-.123.4-.26.807-.383,1.23s-.328.957-.451,1.367c-.424,1.367-.834,2.625-1.23,3.951-.3,1.012-.6,2-.875,3.062s-.574,2.119-.889,3.186C131.937,271.817,129.982,282.945,130.05,284.285Z" transform="translate(-6.227 -136.609)"/><path class="h" d="M136.26,248.356a53.579,53.579,0,0,0,26.386,36.49l9.734-24.869-27.261-24.1-3.978-3.254S138.926,239.634,136.26,248.356Z" transform="translate(-3.946 -136.609)"/><path class="p" d="M216.816,248.129c-6.166,46.484-34.7,48.015-44.72,46.661-9.092-1.217-39.894-6.521-38.554-53.32s24.9-58.665,45.841-56.97S223.05,201.646,216.816,248.129Z" transform="translate(-4.96 -154.333)"/><path class="h" d="M191.139,228.874a30.077,30.077,0,0,1-2.98-1.285,5.291,5.291,0,0,1-2.734-1.9,1.682,1.682,0,0,1,.41-2,4.1,4.1,0,0,1,4.2-.123,6.015,6.015,0,0,1,3.295,2.871,1.777,1.777,0,0,1-2.187,2.434Z" transform="translate(14.044 -140.122)"/><path class="h" d="M166.983,222.668a28.458,28.458,0,0,0,3.24,0,5.182,5.182,0,0,0,3.295-.643,1.668,1.668,0,0,0,.41-2,4.1,4.1,0,0,0-3.8-1.764,6.056,6.056,0,0,0-4.1,1.367,1.777,1.777,0,0,0,.957,3.035Z" transform="translate(6.783 -141.887)"/><path class="h" d="M171.52,229.009c0-.123-.26.109-.287.232-.465,3.158-1.531,6.7-4.566,7.232a.1.1,0,0,0,0,.178C170.221,236.72,171.588,232,171.52,229.009Z" transform="translate(7.196 -137.947)"/><path class="h" d="M169.964,226.214c-4.99-1.367-7.2,8.764-2.6,9.967S174.134,227.335,169.964,226.214Z" transform="translate(6.55 -139.007)"/><path class="h" d="M168.692,226.679c-1.012.369-2.092,1.189-3.172,1.053s-1.941-1.367-2.529-2.6c0-.123-.164,0-.191.082-.451,1.928-.15,4.1,1.846,4.812s3.568-.738,4.471-2.57C169.28,227.13,169.088,226.528,168.692,226.679Z" transform="translate(5.731 -139.376)"/><path class="h" d="M184.08,231.086c0-.109.205.205.178.328-.82,3.09-1.23,6.836,1.367,8.435.082,0,0,.219-.068.178C182.221,238.756,182.809,233.889,184.08,231.086Z" transform="translate(13.242 -137.18)"/><path class="h" d="M187.524,229.178c5.1.766,3.186,10.937-1.531,10.185S183.258,228.535,187.524,229.178Z" transform="translate(13.312 -137.883)"/><path class="h" d="M188,230.031c.7.684,1.3,1.8,2.242,2.051s2.119-.656,3.021-1.572c.1-.1.164,0,.137.137-.3,1.941-1.367,3.842-3.254,3.869s-2.734-1.887-2.734-3.9C187.331,230.181,187.714,229.689,188,230.031Z" transform="translate(14.831 -137.601)"/><path class="h" d="M166.666,248.626c.547.916,1.012,2.105,2.105,2.5a8.5,8.5,0,0,0,3.527.123.109.109,0,0,1,.082.191,4.266,4.266,0,0,1-4.361.615,3.377,3.377,0,0,1-1.682-3.377C166.338,248.489,166.584,248.489,166.666,248.626Z" transform="translate(7.087 -130.767)"/><path class="h" d="M180.968,250.616s-.328,4.8-.793,7c0,.205-.588.191-1.367,0h-.082a10.7,10.7,0,0,1-9.351-6.029.232.232,0,0,1,.4-.232,16.146,16.146,0,0,0,8.982,4.73c.287-.574.287-8.2.643-8.2a19.456,19.456,0,0,1,4.758,2.174c.984-9.98.355-20.029,1.477-29.955a.3.3,0,1,1,.6,0c1.367,10.5.533,22.011-.205,32.334C185.958,253.774,181.775,251.163,180.968,250.616Z" transform="translate(8.206 -141.316)"/><path class="h" d="M152.241,198.752c-1.586,3.678-22.709,6.207-32.005-8.053-9.16-14.054,2.967-31.349,19.769-23.105C150.627,172.817,155.59,190.959,152.241,198.752Z" transform="translate(-10.986 -161.269)"/><path class="h" d="M119.18,172.506a23.488,23.488,0,0,1,13.672-7.287,14.15,14.15,0,0,1,13.289,4.84c3.363,3.787,5.1,8.887,6.029,14.027a43.4,43.4,0,0,1,.574,7.9,21.657,21.657,0,0,1-1.271,7.889,19.14,19.14,0,0,0,2.734-7.765,35.3,35.3,0,0,0,.273-8.381,27.617,27.617,0,0,0-6.07-15.681,15.764,15.764,0,0,0-15.982-5.168,20.713,20.713,0,0,0-13.248,9.625Z" transform="translate(-10.218 -162.394)"/><path class="h" d="M136.595,243.983c8.2,3.377,15.64-15.517,15.64-15.517s37.871,3.637,48.9-25.019c0,0,1.135,20.508,17.773,34.1,0,0,7.465-32.675-16.406-45.868,0,0-28.711-20.152-53.32.26S131.085,241.727,136.595,243.983Z" transform="translate(-5.703 -154.903)"/><path class="h" d="M194.412,196.33a33.345,33.345,0,0,1-5.25,13.029,34.713,34.713,0,0,1-10.049,10.062,30.335,30.335,0,0,1-3.1,1.777l-1.572.861c-.547.232-1.107.438-1.668.656-1.121.41-2.215.875-3.35,1.23s-2.311.561-3.459.82c-.588.123-1.162.273-1.736.369l-1.764.191-3.514.369c-2.352,0-4.7-.082-7.027-.219,2.324-.355,4.648-.451,6.918-.82l3.4-.656,1.682-.314c.561-.15,1.094-.342,1.641-.506,1.094-.355,2.187-.684,3.281-1a22.62,22.62,0,0,0,3.131-1.367l1.572-.67,1.477-.82a29.937,29.937,0,0,0,2.926-1.736,39.647,39.647,0,0,0,9.885-9.228,41.85,41.85,0,0,0,3.732-5.756,39.934,39.934,0,0,0,2.844-6.275Z" transform="translate(1.803 -149.933)"/><path class="k" d="M134.481,204.91l-3.8,3.254,9.338,15.777,8.34-7.424Zm6.412,14.355-6.836-10.1.875-.779,8.928,8.326Z" transform="translate(-5.995 -146.783)"/><path class="k" d="M136.763,199.75l-2.283,4.443,14.588,11.088L154,205.26Zm11.361,10.937-10.1-6.836.506-1.053,11.4,4.348Z" transform="translate(-4.6 -148.677)"/><path class="p" d="M143.5,233.293s-6.836-16.5-14.082-14.383-4.361,24.5,2.611,29.025a7.93,7.93,0,0,0,11.293-1.859Z" transform="translate(-8.01 -141.711)"/><path class="h" d="M129.035,223.54c-.123,0-.178.123-.082.191,4.853,3.35,6.562,8.914,7.383,14.478-1.148-2.324-3.062-3.883-6.125-2.584-.164.068-.082.314.082.314a4.908,4.908,0,0,1,4.867,2.83,23.432,23.432,0,0,1,1.559,4.8c.15.533,1.066.465,1.012-.123v-.137C139.371,236.542,136.2,225.851,129.035,223.54Z" transform="translate(-6.647 -139.943)"/></g><g transform="translate(298.063 70.77)"><path class="g" d="M308.767,100.845v38.281H297.952V100.845c0-14.547-11.047-26.373-24.609-26.373S248.734,86.3,248.734,100.845v38.281H237.92V100.845c0-20.836,15.9-37.775,35.451-37.775S308.767,80.009,308.767,100.845Z" transform="translate(-224.016 -63.07)"/><path class="m" d="M237.88,97.97l10.814.438v27.877H237.88Z" transform="translate(-224.031 -50.256)"/><path class="m" d="M292.644,100.2v25.429H281.83V99.76Z" transform="translate(-207.894 -49.599)"/><rect class="k" width="98.6" height="89.454" transform="translate(0 54.249)"/><rect class="n" width="49.3" height="89.454" transform="translate(49.3 54.249)"/><path class="h" d="M270.464,142.212l4.1,19.578H257.079l4.1-19.578a8.764,8.764,0,1,1,9.256,0Z" transform="translate(-216.994 -39.962)"/></g></g><text class="q" transform="translate(278 468)"><tspan x="0" y="0">Forgot your </tspan><tspan x="0" y="60">password?</tspan></text></g></g></svg>