<svg xmlns="http://www.w3.org/2000/svg" xmlns:xlink="http://www.w3.org/1999/xlink" width="960" height="807" viewBox="0 0 960 807"><defs><style>.a{fill:#fff;}.b{clip-path:url(#a);}.c,.u{fill:#003cad;}.c{opacity:0.05;}.d{fill:#ebebeb;}.e{mix-blend-mode:multiply;isolation:isolate;}.f{fill:#dbdbdb;}.g{fill:#c7c7c7;}.h{fill:#a6a6a6;}.i,.j{fill:none;stroke-miterlimit:10;}.i{stroke:#ebebeb;}.j{stroke:#dbdbdb;}.k{fill:#c95f50;}.l{fill:#455a64;}.m{fill:#263238;}.n{fill:#37474f;}.o{fill:#216cf8;}.p{fill:#ff98b9;}.q,.t{opacity:0.1;}.r{fill:#ad6359;}.s{fill:#ff99ba;}.t{fill:#050400;}.u{font-size:50px;font-family:Helvetica-Bold, Helvetica;font-weight:700;}.v{fill:#979ca0;font-size:25px;font-family:Helvetica;}</style><clipPath id="a"><rect class="a" width="960" height="807" transform="translate(-6724 595)"/></clipPath></defs><g class="b" transform="translate(6724 -595)"><rect class="c" width="960" height="807" transform="translate(-6724 595)"/><g transform="translate(-6687.255 948.39)"><g transform="translate(49.042 577.495)"><ellipse class="d" cx="291.324" cy="31.585" rx="291.324" ry="31.585"/></g><g class="e" transform="translate(278.051 36.11)"><path class="d" d="M94.066,321.832l-18.7.4-9.493.157c-3.179.071-6.371,0-9.55.086H55.7v-.641l-.086-15.949v-.713h.713l18.871.085c6.3,0,12.586.171,18.871.242h.4v.385c0,2.708-.128,5.4-.185,8.053Zm0,0-.2-8.053c0-2.665-.157-5.288-.185-7.9l.385.385c-6.286.071-12.571.228-18.871.242l-18.871.086.713-.713v15.949l-.641-.641c3.107,0,6.214,0,9.336.085l9.379.157Z" transform="translate(-34.558 78.331)"/><path class="d" d="M79.3,335.972l-18.7.4-9.493.157c-3.179.071-6.371,0-9.55.085h-.627v-.641l-.086-15.949v-.713h.713l18.871.085c6.286,0,12.586.171,18.871.242h.4v.385c0,2.708-.114,5.4-.185,8.053Zm0,0-.2-8.053c-.071-2.665-.157-5.288-.185-7.9l.385.385c-6.286.071-12.586.228-18.871.242l-18.871.085.713-.713-.071,15.949-.641-.641c3.107,0,6.214,0,9.336.085l9.379.157Z" transform="translate(-40.84 84.345)"/><path class="d" d="M375.006,177.262l-18.715.4-9.493.157c-3.164,0-6.357,0-9.535.086h-.641v-.641l-.071-15.949V160.6h.713l18.871.086c6.286,0,12.586.171,18.871.242h.385v.385c0,2.708-.114,5.4-.185,8.053Zm0,0-.2-8.053c-.071-2.665-.171-5.288-.185-7.9l.385.385c-6.286.086-12.586.228-18.871.242l-18.871.086.713-.713-.086,15.95-.627-.627c3.107,0,6.214,0,9.322.071l9.379.157Z" transform="translate(84.936 16.84)"/><path class="d" d="M360.236,191.372l-18.715.4-9.493.157c-3.164.071-6.357,0-9.536.086h-.641v-.641l-.071-15.95v-.713h.727l18.871.086c6.286,0,12.571.171,18.871.242h.328v.385c0,2.708-.128,5.4-.185,8.053Zm0,0-.2-8.053c-.071-2.665-.171-5.288-.2-7.9l.4.385c-6.3.071-12.586.228-18.871.242l-18.871.086.713-.713-.086,15.949-.627-.641c3.107,0,6.2,0,9.322.086l9.379.157Z" transform="translate(78.654 22.842)"/><path class="d" d="M345.476,177.262l-18.7.4-9.493.157c-3.179,0-6.371,0-9.55.086h-.627v-.641l-.085-15.949V160.6h.713l18.871.086c6.3,0,12.586.171,18.871.242h.4v.385c0,2.708-.128,5.4-.185,8.053Zm0,0-.2-8.053c0-2.665-.157-5.288-.185-7.9l.385.385c-6.286.086-12.571.228-18.871.242l-18.871.086.713-.713-.029,15.949-.641-.627c3.121,0,6.214,0,9.336.071l9.379.157Z" transform="translate(72.376 16.84)"/><path class="d" d="M470.136,335.972l-18.715.4-9.493.157c-3.164.071-6.357,0-9.535.085h-.641v-.641l-.071-15.949v-.713h.713l18.871.085c6.286,0,12.586.171,18.871.242h.385v.385c0,2.708-.114,5.4-.185,8.053Zm0,0-.2-8.053c0-2.665-.171-5.288-.185-7.9l.385.385c-6.286.071-12.586.228-18.871.242l-18.871.085.713-.713-.085,15.949-.627-.641c3.107,0,6.214,0,9.322.085l9.379.157Z" transform="translate(125.398 84.345)"/><path class="d" d="M455.327,52.858l-18.715.4-9.493.157H417V36.11h.727L436.6,36.2c6.286,0,12.571.171,18.871.242h.385v.385c0,2.708-.128,5.4-.185,8.053Zm0,0-.2-8.053c-.071-2.665-.171-5.288-.2-7.9l.4.385c-6.3.071-12.586.228-18.871.242l-18.871.086.713-.713-.085,15.95-.627-.641c3.107,0,6.2,0,9.322.086l9.379.157Z" transform="translate(119.154 -36.11)"/><path class="d" d="M470.136,66.972l-18.715.4-9.493.157H431.751v-.556l-.071-15.95V50.31h.713l18.871.086c6.286,0,12.586.171,18.871.242h.385v.385c0,2.708-.114,5.4-.185,8.053Zm0,0-.2-8.053c0-2.665-.171-5.288-.185-7.9l.385.385c-6.286.071-12.586.228-18.871.242l-18.871.086.713-.713-.085,15.95-.627-.641c3.107,0,6.214,0,9.322.086l9.379.157Z" transform="translate(125.398 -30.07)"/><path class="d" d="M79.3,52.832l-18.7.4-9.55.157c-3.179,0-6.371,0-9.55.086h-.57v-.641l-.086-15.95V36.17h.713l18.871.086c6.286,0,12.586.171,18.871.242h.4v.385c0,2.708-.114,5.4-.185,8.053Zm0,0-.2-8.053c-.071-2.665-.157-5.288-.185-7.9l.385.385c-6.286.071-12.586.228-18.871.242L41.553,37.6l.713-.713-.071,15.95-.641-.641c3.107,0,6.214,0,9.336.086l9.379.157Z" transform="translate(-40.84 -36.084)"/><path class="f" d="M398.64,330.919h39.539L460.8,218.1,424.61,201.47Z" transform="translate(111.345 34.224)"/><path class="d" d="M319.24,330.919H432.412l25.97-129.449H345.21Z" transform="translate(77.574 34.224)"/><rect class="f" width="60.591" height="124.332" transform="translate(590.873 428.941) rotate(180)"/><path class="f" d="M298.84,374.162h16.548L340.061,249.83H298.84Z" transform="translate(68.897 54.793)"/><rect class="d" width="33.296" height="124.332" transform="translate(530.282 428.941) rotate(180)"/><rect class="d" width="33.296" height="124.332" transform="translate(367.722 428.941) rotate(180)"/><rect class="d" width="129.249" height="63.798" transform="translate(496.986 428.955) rotate(180)"/><rect class="d" width="129.249" height="27.837" transform="translate(496.986 365.413) rotate(180)"/><path class="f" d="M414.83,249.945l-12.571-.228-12.572-.157H389.3v.4l-.143,14.538V279.05c0,9.707-.071,19.4,0,29.105s0,19.4.157,29.105.228,19.4.428,29.091q.3-14.538.428-29.091c.114-9.707.128-19.4.157-29.105s0-19.4,0-29.105V264.5l-.143-14.538-.385.371,12.571-.157Z" transform="translate(107.299 54.678)"/><path class="f" d="M299.027,249.83c-.271,9.735-.385,19.47-.485,29.205L298.4,308.24l.143,29.205.171,14.61.314,14.61.3-14.61.171-14.61.157-29.205-.157-29.205Q299.348,264.433,299.027,249.83Z" transform="translate(68.71 54.793)"/><path class="f" d="M298.84,292.456c10.761.257,21.537.385,32.312.485l32.312.143,32.312-.143,16.149-.171,16.163-.314-16.163-.3-16.149-.114-32.312-.143-32.312.157C320.448,292.043,309.6,292.2,298.84,292.456Z" transform="translate(68.897 72.687)"/><path class="f" d="M298.84,273.127c10.761.257,21.537.385,32.312.485l32.312.143,32.312-.143,16.149-.171,16.163-.314-16.163-.3-16.149-.185-32.312-.143-32.312.143C320.448,272.742,309.6,272.871,298.84,273.127Z" transform="translate(68.897 64.435)"/><path class="g" d="M439.24,337.06l.812,10.063,1.91,23.276h8.78l1.91-23.276.827-10.063Z" transform="translate(128.614 91.895)"/><path class="h" d="M453.479,337.06H439.24l.812,10.063h12.6Z" transform="translate(128.614 91.895)"/><path class="g" d="M396.2,337.06l.827,10.063,1.91,23.276h8.78l1.91-23.276.812-10.063Z" transform="translate(110.307 91.895)"/><path class="h" d="M410.439,337.06H396.2l.827,10.063h12.6Z" transform="translate(110.307 91.895)"/><path class="g" d="M324.83,337.06l.812,10.063,1.924,23.276h8.766l1.91-23.276.827-10.063Z" transform="translate(79.951 91.895)"/><path class="h" d="M339.069,337.06H324.83l.812,10.063h12.6Z" transform="translate(79.951 91.895)"/><path class="g" d="M281.79,337.06l.812,10.063,1.91,23.276h8.78l1.91-23.276.827-10.063Z" transform="translate(61.645 91.895)"/><path class="h" d="M281.79,337.06l.812,10.063h12.6l.827-10.063Z" transform="translate(61.645 91.895)"/><rect class="d" width="78.351" height="95.041" transform="translate(276.301 34.465)"/><rect class="a" width="60.449" height="77.695" transform="translate(285.253 43.131)"/><rect class="f" width="2.352" height="77.695" transform="translate(285.253 43.131)"/><rect class="f" width="2.352" height="95.041" transform="translate(354.652 34.465)"/><rect class="f" width="14.253" height="42.461" transform="translate(305.507 53.849)"/><rect class="i" width="37.999" height="20.81" transform="translate(299.292 82.755)"/><rect class="d" width="78.351" height="95.041" transform="translate(276.301 151.984)"/><rect class="a" width="60.449" height="77.695" transform="translate(285.253 160.664)"/><rect class="f" width="2.352" height="77.695" transform="translate(285.253 160.664)"/><rect class="f" width="2.352" height="95.041" transform="translate(354.652 151.984)"/><rect class="d" width="12.215" height="30.873" transform="translate(309.626 180.747)"/><rect class="j" width="32.797" height="21.28" transform="translate(301.886 199.504)"/><rect class="d" width="193.561" height="264.785" transform="translate(7.013 14.125)"/><rect class="a" width="79.391" height="117.776" transform="translate(19.199 24.73)"/><rect class="a" width="79.391" height="117.776" transform="translate(108.995 24.73)"/><rect class="a" width="79.391" height="117.776" transform="translate(19.199 150.53)"/><rect class="a" width="79.391" height="117.776" transform="translate(108.995 150.53)"/><rect class="g" width="52.98" height="378.826" transform="translate(7.013 14.125)"/><path class="d" d="M76.127,58.65l.413,40.964.143,40.964.285,81.914L76.7,304.406l-.157,40.964-.413,40.964-.413-40.964-.143-40.964L75.3,222.492l.271-81.914.157-40.964Z" transform="translate(-26.183 -26.523)"/><path class="d" d="M59.071,65.32l.4,36.574.242,36.574.2,73.148-.2,73.134-.242,36.574-.4,36.574-.413-36.574-.242-36.574-.185-73.134.2-73.148.228-36.574Z" transform="translate(-33.443 -23.686)"/><path class="d" d="M67.6,71.38l.413,42.817.143,42.831.285,85.648-.285,85.648-.143,42.817L67.6,413.974l-.413-42.831-.143-42.817-.285-85.648.285-85.648.143-42.831Z" transform="translate(-29.815 -21.108)"/><path class="d" d="M52.721,60.17l.413,44.813.143,44.827.285,89.639L53.277,329.1l-.143,44.813-.413,44.827-.413-44.827L52.165,329.1l-.285-89.654.285-89.639.143-44.827Z" transform="translate(-36.144 -25.876)"/><rect class="g" width="52.98" height="378.826" transform="translate(200.588 392.937) rotate(180)"/><path class="d" d="M151.691,58.65l.413,40.964.143,40.964.285,81.914-.285,81.914-.143,40.964-.413,40.964-.413-40.964-.143-40.964-.285-81.914.285-81.914.157-40.964Z" transform="translate(5.951 -26.523)"/><path class="d" d="M168.761,65.32l.4,36.574.242,36.574.2,73.148-.2,73.134-.228,36.574-.413,36.574-.413-36.574-.242-36.574-.185-73.134.2-73.148.228-36.574Z" transform="translate(13.212 -23.686)"/><path class="d" d="M160.217,71.38l.413,42.817.157,42.831.271,85.648-.271,85.648-.157,42.817-.413,42.831-.4-42.831-.157-42.817-.271-85.648.271-85.648.157-42.831Z" transform="translate(9.584 -21.108)"/><path class="d" d="M175.1,60.17l.413,44.813.157,44.827.271,89.639-.271,89.654-.157,44.813-.413,44.827-.4-44.827-.157-44.813-.271-89.654.271-89.639.157-44.827Z" transform="translate(15.913 -25.876)"/></g><g transform="translate(357.316 87.075)"><path class="k" d="M340.313,487.366c3.46,1.126,102.167-.163,105.888-2.6,1.42-.9,2.073-15.292,2.367-32.641v-.539c0-3.591.114-7.279.131-11.033v-1.55l-4.8-51.2-66.017.669,6.528,50.708v2.024l.392,10.494v1.077s-37.537,17.381-41.373,20.5S336.853,486.272,340.313,487.366Z" transform="translate(-282.601 47.096)"/><path class="d" d="M340.315,467.538c3.46,1.126,102.167-.163,105.888-2.6,1.42-.9,2.073-15.292,2.367-32.641v-.539c0-3.591.114-7.279.131-11.033V419.18l-64.3.18v2.024l.392,10.494v1.077s-37.537,17.381-41.373,20.5S336.855,466.444,340.315,467.538Z" transform="translate(-282.603 66.924)"/><path class="l" d="M340.3,462.69c1.779.571,28.594.506,54.8,0,5.272-.1,10.51-.229,15.5-.359,18.687-.522,34.126-1.289,35.563-2.219s2.073-14.884,2.35-31.972V426.85h0l-63.65.114v1.094s-37.537,17.381-41.356,20.482S336.843,461.58,340.3,462.69Z" transform="translate(-282.591 71.772)"/><path class="m" d="M340.464,446.913c16.631-.62,83.757-1.632,100.258-.93.131,0,.131.1,0,.114-16.468.979-83.611,1.371-100.258,1.094C340.105,447.174,340.105,446.929,340.464,446.913Z" transform="translate(-281.675 83.714)"/><path class="m" d="M362.825,427.3c6.528-1.322,14.558-.408,19.585,4.194.2.163,0,.441-.277.375a93.374,93.374,0,0,0-19.291-3.754.408.408,0,0,1-.016-.816Z" transform="translate(-267.624 71.709)"/><path class="m" d="M359.958,429.082c6.528-1.306,14.558-.408,19.585,4.194.2.18,0,.457-.277.392a92.275,92.275,0,0,0-19.307-3.77.408.408,0,1,1,0-.816Z" transform="translate(-269.441 72.837)"/><path class="m" d="M357.059,430.862c6.528-1.306,14.542-.408,19.585,4.194.212.179,0,.457-.261.392a91.4,91.4,0,0,0-19.307-3.754.424.424,0,0,1-.016-.832Z" transform="translate(-271.227 73.962)"/><path class="m" d="M373.28,462.68c5.272-.1,10.51-.229,15.5-.359,18.687-.522,34.126-1.289,35.563-2.22s2.073-14.884,2.35-31.972V426.84h0C417.949,432.96,387.234,453.394,373.28,462.68Z" transform="translate(-260.763 71.766)"/><path class="m" d="M367.827,561.945H438.9s-14.313-166.013-13.758-168.9c.718-3.721,4.9-20.515,10.494-42.434,1.763-6.871,3.64-14.248,5.6-21.886,5.3-20.646,11.147-43.217,16.321-62.867,7.638-29.377,13.6-52.226,13.6-52.226H410.831s-7.018,22.18-15.847,51.2C380.573,311.88,361.3,376.657,359.405,392.39,356.3,417.752,367.827,561.945,367.827,561.945Z" transform="translate(-269.868 -62.996)"/><path class="n" d="M366.353,419.809c10.853-.229,7.736-.31,18.589-.408,5.32,0,40.23-.359,45.192.457a.114.114,0,1,1,0,.228c-4.9.816-39.871.506-45.192.457-10.853-.1-7.736-.2-18.589-.408a.163.163,0,1,1,0-.326Z" transform="translate(-265.244 67.014)"/><path class="n" d="M391.928,377.081c2.334-10.266,5.81-20.336,8.846-30.422q9.237-30.748,18.589-61.447,4.668-15.358,9.384-30.7,2.367-7.736,4.782-15.488c1.632-5.043,3.378-10.037,4.9-15.129.571-2.073.9-.93.147,1.632-1.485,5.3-2.97,10.608-4.521,15.9q-4.586,15.717-9.237,31.4-9.254,31.238-18.654,62.426-4.668,15.635-9.4,31.27a128.413,128.413,0,0,0-3.852,15.129,69.854,69.854,0,0,0-.62,16.19c.685,10.886,1.942,21.739,2.938,32.641s2.024,21.739,3.019,32.641q3,32.462,5.957,64.923c.245,2.742.49,5.484.7,8.16,0,.914-1.322.849-1.42,0-2.334-21.4-4.129-42.858-6.137-64.287s-4-42.646-5.99-63.977c-.506-5.353-1.077-10.706-1.077-16.092a66.32,66.32,0,0,1,1.648-14.77Z" transform="translate(-250.018 -57.185)"/><path class="n" d="M394.9,213.58c4.194,32.347,12.159,93.027,17.953,137.093,13.6-53.336,35.432-137.093,35.432-137.093Z" transform="translate(-247.098 -63.028)"/><path class="k" d="M386.443,487.81c3.46,1.126,102.151.212,105.888-2.22,1.436-.9,2.138-15.292,2.481-32.641v-.555c.082-3.591.131-7.279.163-11.016v-1.55c.229-25.134-1.632-51.2-1.632-51.2l-64.515.424,1.942,50.675v2.007l.359,10.494v1.077S393.51,470.56,389.674,473.66,382.983,486.684,386.443,487.81Z" transform="translate(-253.427 47.615)"/><path class="d" d="M386.45,467.983c3.46,1.126,102.151.212,105.888-2.22,1.436-.9,2.138-15.292,2.481-32.641v-.555c.082-3.591.131-7.279.163-11.016V420H430.7v2.007l.359,10.494v1.077S393.436,450.83,389.6,453.931,382.99,466.856,386.45,467.983Z" transform="translate(-253.435 67.442)"/><path class="l" d="M386.44,463.16c3.46,1.126,102.151.212,105.888-2.22,1.436-.9,2.138-15.292,2.481-32.641v-.555l-63.65-.114v1.077s-37.619,17.251-41.454,20.352S382.98,462.034,386.44,463.16Z" transform="translate(-253.424 72.265)"/><path class="m" d="M386.6,447.385c16.631-.571,83.774-1.273,100.257-.571.131,0,.147.1,0,.114-16.467.914-83.61,1.077-100.257.718C386.257,447.646,386.257,447.385,386.6,447.385Z" transform="translate(-252.507 84.205)"/><path class="m" d="M409.019,427.952c6.528-1.273,14.542-.343,19.585,4.276.2.18,0,.441-.277.375a92.425,92.425,0,0,0-19.291-3.819.424.424,0,0,1-.016-.832Z" transform="translate(-238.385 72.139)"/><path class="m" d="M406.1,429.721c6.528-1.273,14.542-.343,19.585,4.276.2.179,0,.457-.277.392A92.246,92.246,0,0,0,406.1,430.5a.424.424,0,0,1,0-.784Z" transform="translate(-240.183 73.258)"/><path class="m" d="M403.285,431.505c6.528-1.289,14.558-.359,19.585,4.26.2.18,0,.457-.277.392a92.241,92.241,0,0,0-19.291-3.835.408.408,0,0,1-.016-.816Z" transform="translate(-242.051 74.379)"/><path class="m" d="M391.91,213.593s1.387,28.822,7.981,51.655c.522,1.877,1.11,3.737,1.73,5.516a107.97,107.97,0,0,1,17.349,8.927s.7,23.192,1.387,48.962c.783,28.92,1.632,61.17,1.4,68.008-.6,25.591,3.264,166.291,3.264,166.291l71.06.294s-12.844-157.135-12.763-166.47c.131-15.064-3.444-81.6-6.2-130.222-1.632-29.932-3.085-52.993-3.085-52.993Z" transform="translate(-248.988 -63.04)"/><path class="n" d="M413.743,420.14c10.853-.179,7.736-.294,18.589-.343,5.321,0,40.23-.2,45.192.653a.114.114,0,0,1,0,.229c-4.978.8-39.888.343-45.192.261-10.853-.147-7.736-.212-18.589-.49a.163.163,0,1,1,0-.31Z" transform="translate(-235.323 67.302)"/><path class="n" d="M438.73,219.994c1.306,39.643,2.693,79.3,4.472,118.928s4.178,79.514,7.507,119.14c1.861,22.163,3.607,53.336,6.006,75.434,0,.163-.212.212-.229,0-5.19-39.333-8.062-87.968-10.608-127.546s-4.276-79.2-5.614-118.83c-.767-22.425-1.355-44.849-2.024-67.274C438.224,219.652,438.73,219.684,438.73,219.994Z" transform="translate(-219.705 -59.144)"/><path class="n" d="M396.31,247.58a131.382,131.382,0,0,1,20.3,10.641.245.245,0,0,1-.212.424c-6.855-3.346-13.856-6.528-20.515-10.249a.46.46,0,0,1,.424-.816Z" transform="translate(-246.631 -41.57)"/><path class="n" d="M395.933,232.62c.473,2.513,1.077,5.027,1.632,7.54s.881,4.749,1.5,7.083a12.044,12.044,0,0,0,3.264,5.941c.914.849,1.942,1.632,2.921,2.4.539.424,1.11.832,1.632,1.257-.082-.326-.131-.669-.2-1.012l-.49-2.872c-.359-2.122-.7-4.26-1.028-6.4-.637-4.178-1.224-8.421-2.105-12.567,0-.163.228-.228.261,0,1.045,4.113,2.2,8.16,3.1,12.322.457,2.04,2.04,12.077,2.122,12.8s.131,1.469.147,2.2a8.664,8.664,0,0,1,0,2.252.2.2,0,0,1-.343,0h0a8.9,8.9,0,0,1-.637-2.187c-.179-.7-.343-1.436-.473-2.171a1.756,1.756,0,0,0-.131-.8c-.979-.6-1.91-1.387-2.823-2.056s-2.024-1.436-2.954-2.22a11.228,11.228,0,0,1-3.607-5.631,41.772,41.772,0,0,1-1.191-7.23c-.31-2.84-.539-5.712-.947-8.552C395.655,232.506,395.9,232.441,395.933,232.62Z" transform="translate(-246.662 -51.059)"/><path class="k" d="M451.052,175.532c-7,17.74-42.434,59.456-56.894,62.72-10.429,2.35-51.785-20.417-63.291-28.92-11.1-8.16,18.769-40.589,25.623-36.215,9.678,6.169,31.711,24.905,35.905,24.922,2.938,0,19.128-11.163,43.788-31.254C449.812,155.638,455.214,164.94,451.052,175.532Z" transform="translate(-289.117 -95.795)"/><path class="k" d="M349.642,162.679c-6.414-2.317-13.579-5.5-20.711-5.418s-13.154,9.466-13.171,12.159S318.306,189,325.438,189s2.938-12.91,3.264-14.395.571-3.362,1.91-3.264,24.791,11.6,24.791,11.6Z" transform="translate(-297.119 -98.626)"/><path class="k" d="M351.65,164.142c-.408,0-19.487-7.7-26.635-7.622s-13.138,9.45-13.154,12.159,2.53,19.585,9.678,19.585,2.938-12.926,3.264-14.395.555-3.378,1.91-3.264,24.84,11.522,24.84,11.522Z" transform="translate(-299.584 -99.093)"/><path class="m" d="M319.289,182.073a8.437,8.437,0,0,0,1.224-4.194,14.8,14.8,0,0,0-.228-4.57,23.43,23.43,0,0,1-.832-3.933,7.818,7.818,0,0,1,1.028-3.77c.555-1,1.632-.653,2.5-.326a37.764,37.764,0,0,1,3.868,1.8c1.371.685,2.709,1.4,4.047,2.105a37.732,37.732,0,0,1,4.129,2.318.114.114,0,0,1-.082.2,37.859,37.859,0,0,1-3.607-1.632c-1.355-.637-2.709-1.289-4.08-1.893s-2.513-1.24-3.8-1.8a4.065,4.065,0,0,0-1.877-.571c-.539.114-.816,1.453-.947,1.893a6.74,6.74,0,0,0,.212,3.852,20.173,20.173,0,0,1,.718,3.917,10.542,10.542,0,0,1-.326,3.721,14.235,14.235,0,0,1-1.73,3.068C319.42,182.35,319.191,182.2,319.289,182.073Z" transform="translate(-294.904 -93.767)"/><path class="k" d="M378.861,189.867s-19.585-18.2-23.747-21.8c-8.16-7.263-42.907-21.739-47.754-22.294s-6.675,9.384,16.859,19.895c12.42,5.549,14.574,12.7,14.313,16.647s-4.1,11.278-10.755,11.049-10.87-9.972-16.973-11.1-2.154,10.1,2.105,16.614a40.8,40.8,0,0,0,17.773,14.1c5.729,2.187,23.469,10,23.469,10Z" transform="translate(-304.338 -105.903)"/><path class="m" d="M313.785,180.955c2.5,1.958,5.3,4.488,8.6,4.635s5.631-2.04,7.23-4.8a12.6,12.6,0,0,0,1.828-9.172,15.555,15.555,0,0,0-4.5-7.507,37.962,37.962,0,0,0-8.96-6.055c-.147-.082,0-.277.131-.212,3.052,1.387,12.534,5.353,14.378,13.775a12.926,12.926,0,0,1-1.893,9.335c-1.485,2.644-3.656,5.174-6.887,5.4-3.917.294-7.279-2.921-10.086-5.337C313.474,180.955,313.654,180.955,313.785,180.955Z" transform="translate(-298.506 -98.264)"/><path class="o" d="M353.309,174.036,334.72,226.49s43.723,16.794,56.371,13.383,45.029-40.116,56.355-62.459c6.887-13.6-1.094-22.849-16.973-10.8-16.321,12.306-39.169,29.377-40.965,29.932S353.309,174.036,353.309,174.036Z" transform="translate(-285.135 -96.24)"/><path class="m" d="M350.636,197.437c1.224-3.9,5.957-19.585,6.838-23.567,0,0-.082-.114-.114,0-1.632,3.639-6.708,18.981-7.932,22.849a223.76,223.76,0,0,0-6.528,23.649c0,.147.179.245.245.1C346.1,212.974,348.253,205.124,350.636,197.437Z" transform="translate(-279.965 -88.159)"/><path class="m" d="M422.12,177.412c-9.189,18.116-32.2,45.7-47.33,57.236l40.083-73.182h0C423.948,159.165,427.359,167,422.12,177.412Z" transform="translate(-259.809 -96.222)"/><path class="o" d="M487.116,284.81c-.212.294-104.093,10.445-105.137,9.482-1.469-1.387,13.579-111.176,19.16-127.872,2.383-7.116,18.834-10.837,26.423-5.761,19.03,12.714,38.827,60.778,43.739,75.352C479.413,260.035,487.883,283.765,487.116,284.81Z" transform="translate(-255.328 -97.96)"/><path class="m" d="M393.521,166.761h0c.179,4.733.865,15.7,8.16,14.313a15.766,15.766,0,0,0,7.573-4.717,41.594,41.594,0,0,0,5.663-6.985,61.865,61.865,0,0,0,5.043-8.732c0-.131.245,0,.2.114-1.485,3.052-2.644,6.186-4.423,9.091a36,36,0,0,1-6.071,7.7,15.847,15.847,0,0,1-8.16,4.684,5.973,5.973,0,0,1-6.528-3.9A26.113,26.113,0,0,1,393.521,166.761Z" transform="translate(-248.053 -96.523)"/><path class="k" d="M433.59,169.359c20.678,20.548,65.658,67.812,57.122,81.913-14.1,23.175-53.858,48.048-66.555,54.3-5.484,2.693-33.18-35.807-28.316-40.165,5.843-5.239,44.947-28.675,44.8-30.732S427.862,205,421.5,182.791C413.549,155.242,424.973,160.791,433.59,169.359Z" transform="translate(-246.864 -95.399)"/><path class="k" d="M442.51,222.829s-18.459-2.22-30.6-3.1c-6.773-.49-18.459-.294-23.6,1.632-7.687,2.872-38.027,19.748-34.094,27.19,3.574,6.74,27.745-11.082,27.745-11.082s-26.031,15.831-20.254,23.159,30.471-16.451,30.471-16.451S365.852,261,373,267.645c5.418,4.994,28.985-15.276,28.985-15.276s-22.571,14.689-17.235,20.025c5.908,5.941,28.839-11.424,28.839-11.424,15.88,11.424,27.974,11.229,36.689,8.5C452.3,268.821,442.51,222.829,442.51,222.829Z" transform="translate(-273.034 -59.285)"/><path class="m" d="M385.95,227.283c-20.058,10.184-26.782,21.331-26.537,21.07,5.631-6.137,16.108-13.53,19.063-15.554s4.6-3.395,7.556-5.4C386.1,227.348,386.015,227.25,385.95,227.283Z" transform="translate(-269.532 -54.371)"/><path class="m" d="M389.693,233.261a76.51,76.51,0,0,0-22.327,15.374c-.245.261-.082.294.212,0,3.688-2.66,18.377-12.877,22.18-15.358C389.807,233.31,389.693,233.245,389.693,233.261Z" transform="translate(-264.576 -50.59)"/><path class="m" d="M392.53,238.1a56.7,56.7,0,0,0-16.941,12.42c-.245.245,0,.294.294,0,5.549-4.243,9.792-7.589,16.761-12.289C392.758,238.252,392.644,238.04,392.53,238.1Z" transform="translate(-259.367 -47.534)"/><path class="o" d="M402.82,257.282l31.956,46.3s51.084-39.659,52.944-54.592-46.775-71.076-60.517-81.9-16.631-4.9-13.856,9.531S435.135,234.58,435,235.477,402.82,257.282,402.82,257.282Z" transform="translate(-242.092 -95.925)"/><path class="m" d="M427.42,201.9q-2.007-4.9-3.933-9.792c-.669-1.714-1.338-3.427-2.024-5.125l-.963-2.35c-.163-.392-.359-.783-.49-1.175a6.528,6.528,0,0,0-.685-1.55c0-.082-.179,0-.163,0,.261.914,0,.571.294,1.257a16.162,16.162,0,0,1,.555,1.632c.261.8.539,1.632.8,2.4.555,1.632,1.142,3.264,1.73,4.9l.245.636a.205.205,0,0,0-.082-.163c-.93-1.632-1.877-3.427-2.823-5.125,0-.082-.147,0-.114,0a57.867,57.867,0,0,0,2.464,5.3c.522,1.012,1.11,1.975,1.632,2.938.816,2.171,1.632,4.341,2.464,6.528,2.628,6.675,5.288,13.383,8.438,19.829-2.709,1.828-5.516,3.542-8.16,5.386s-5.4,3.737-8.16,5.614-5.386,3.754-8.046,5.68c-1.273.914-2.53,1.861-3.786,2.791s-2.628,2.187-4.031,3.166c-.131.114,0,.31.18.212,1.453-1,3.052-1.8,4.521-2.758s2.611-1.632,3.9-2.513c2.742-1.828,5.451-3.7,8.16-5.565s5.418-3.721,8.16-5.614,5.272-3.917,7.948-5.826a.326.326,0,0,0,.147-.245.375.375,0,0,0,.1-.408C433.051,215.2,430.13,208.588,427.42,201.9Z" transform="translate(-242.277 -83.072)"/><path class="m" d="M424.855,237.6c-2.35-3.346-11.9-16.663-14.525-19.781h-.1c1.926,3.46,10.951,16.892,13.318,20.238a224.108,224.108,0,0,0,14.689,19.666c.1.1.31,0,.228-.147C434.338,250.755,429.523,244.227,424.855,237.6Z" transform="translate(-237.41 -60.348)"/><path class="m" d="M449.832,229.21a42.068,42.068,0,0,0-3.264,3.117l-3.362,3.264c-2.2,2.154-4.407,4.358-6.806,6.283-.131.114,0,.31.18.2,2.432-1.991,4.9-3.868,7.246-5.99a40.486,40.486,0,0,0,6.218-6.724C450.077,229.259,449.93,229.128,449.832,229.21Z" transform="translate(-220.9 -53.165)"/><path class="k" d="M402.57,185.057c5.369,0,13.236-10.739,15.194-17.855a108.442,108.442,0,0,0-3.46-10.315c-1.11-3.264-2.269-7.018-3.085-10.478l-20.45,10.38a57.03,57.03,0,0,1,5.223,12.8,7.83,7.83,0,0,1,.18,1.453v.245C396.384,174.09,397.364,185.041,402.57,185.057Z" transform="translate(-249.708 -105.483)"/><path class="m" d="M398.434,170.748a13.746,13.746,0,0,1-2.252.408v-.245a7.833,7.833,0,0,0-.179-1.453,57.028,57.028,0,0,0-5.223-12.8l19.8-10.053C410.805,151.751,410.577,167.6,398.434,170.748Z" transform="translate(-249.702 -105.357)"/><path class="k" d="M420.322,138.912c2.138,7.981-2.791,30.666-8.585,35.563-8.389,7.116-21.755,7.377-27.745-2.628-5.761-9.694,1.191-39.169,7.622-43.56C401.145,121.776,417.139,127.112,420.322,138.912Z" transform="translate(-255.35 -118.712)"/><path class="m" d="M391.189,142.18s.1.1,0,.147c-.375,1.534-.539,3.264.734,4.129C390.308,145.95,390.552,143.518,391.189,142.18Z" transform="translate(-249.752 -108.157)"/><path class="m" d="M392.783,141.385c2.513.326,1.632,5.3-.669,4.994S390.726,141.091,392.783,141.385Z" transform="translate(-249.714 -108.667)"/><path class="m" d="M386.66,141.22s-.131,0-.147.114c-.212,1.632-.718,3.264-2.2,3.558v.1C386.056,145.039,386.709,142.722,386.66,141.22Z" transform="translate(-253.791 -108.763)"/><path class="m" d="M386.029,140.111c-2.432-.62-3.493,4.325-1.224,4.9S388.085,140.617,386.029,140.111Z" transform="translate(-254.27 -109.499)"/><path class="m" d="M394.831,141.709c-.653-.294-1.208-.669-1.812-1.012a3.264,3.264,0,0,1-1.632-1.387,1.061,1.061,0,0,1,.375-1.24,2.628,2.628,0,0,1,2.677.18,3.917,3.917,0,0,1,1.926,2.04,1.142,1.142,0,0,1-1.534,1.42Z" transform="translate(-249.362 -110.934)"/><path class="m" d="M384.591,139.522a17.761,17.761,0,0,0,2.073-.18,3.264,3.264,0,0,0,2.073-.571,1.061,1.061,0,0,0,.147-1.289,2.628,2.628,0,0,0-2.513-.947,3.983,3.983,0,0,0-2.595,1.077,1.142,1.142,0,0,0,.816,1.91Z" transform="translate(-254.317 -111.75)"/><path class="m" d="M392.081,150.947c-.441.294-.881.718-1.453.669a4.293,4.293,0,0,1-1.632-.669s-.1,0,0,0a2.073,2.073,0,0,0,1.812,1.175,1.632,1.632,0,0,0,1.485-1.077C392.294,150.947,392.147,150.9,392.081,150.947Z" transform="translate(-250.857 -102.627)"/><path class="m" d="M393.776,154.893a5.321,5.321,0,0,1-3.852,1.73,6.332,6.332,0,0,1-1.91-.245,1.19,1.19,0,0,1-.343-.1l-.327-.114a.375.375,0,0,1-.261-.392h0v-.147h0V155.5c.163-1.191.587-2.987.587-2.987-.473.147-2.856.767-2.709.147a80.914,80.914,0,0,1,4.8-15.619.147.147,0,0,1,.278.1c-.947,4.9-2.758,9.645-3.786,14.591a8.9,8.9,0,0,1,2.595-.326c.163,0-.881,3.427-.914,3.966h0a7.491,7.491,0,0,0,5.729-.751C393.792,154.664,393.89,154.779,393.776,154.893Z" transform="translate(-253.383 -111.469)"/><path class="m" d="M387.3,148.99a6.186,6.186,0,0,0,2.154,2.35,2.839,2.839,0,0,0,1.632.408c1.289-.114,1.518-1.24,1.453-2.236a7.115,7.115,0,0,0-.294-1.632,8.16,8.16,0,0,1-4.945,1.11Z" transform="translate(-251.902 -104.554)"/><path class="p" d="M388.62,150.717a2.84,2.84,0,0,0,1.632.408c1.289-.114,1.518-1.24,1.453-2.236A2.921,2.921,0,0,0,388.62,150.717Z" transform="translate(-251.067 -103.931)"/><path class="m" d="M417.193,159.835c-4.129-.457-3.264-10.543-3.264-10.543s-6.251-1.453-8.895-10.266c0,0-8.372,4.684-15.113,3.085-10.576-2.481-9.58-16.321-5.451-18.948,5.859-3.721,15.651,2.628,15.651,2.628s15.472-3.46,19.487,7.083a7.867,7.867,0,0,1,6.887,8.16C426.627,148.607,420.262,160.178,417.193,159.835Z" transform="translate(-255.535 -120.916)"/><path class="m" d="M406.395,145.058a14.2,14.2,0,0,1-7.752-4.749,10.56,10.56,0,0,1-1.942-9.466.147.147,0,0,0-.277-.082,12.143,12.143,0,0,0,1.175,10.217,9.792,9.792,0,0,0,8.764,4.39.163.163,0,0,0,.033-.31Z" transform="translate(-246.532 -115.425)"/><path class="m" d="M413.471,132.321c-1.975-2.774-5.157-3.362-8.34-3.411-.18,0-.18.294,0,.277a8.829,8.829,0,0,1,7.671,4.684c1.469,2.595.947,5.729.163,8.454a22.18,22.18,0,0,1-9.515,12.763v.114a22.245,22.245,0,0,0,10.674-13.954C414.874,138.376,415.282,134.867,413.471,132.321Z" transform="translate(-241.694 -116.544)"/><path class="m" d="M400.381,126.73a10.4,10.4,0,0,0-5.631-4.782,12.485,12.485,0,0,0-8.895.441,7.018,7.018,0,0,0-4,5.81,12.371,12.371,0,0,0,2.383,8.013c0,.082.147,0,.114,0a12.485,12.485,0,0,1-1.828-7.263,6.528,6.528,0,0,1,4.113-5.533c4.472-1.73,10.87-1.077,13.513,3.525C400.234,127.04,400.479,126.893,400.381,126.73Z" transform="translate(-255.354 -121.333)"/><path class="o" d="M383.577,151.007c-2.432-.49-3.835-3.884-3.1-7.573s3.264-6.316,5.745-5.843,3.835,3.884,3.117,7.589S386.025,151.48,383.577,151.007Zm2.464-12.5c-1.942-.392-4.048,1.893-4.668,5.108s.441,6.1,2.383,6.528,4.048-1.91,4.684-5.108-.457-6.153-2.4-6.528Z" transform="translate(-256.338 -111.092)"/><path class="o" d="M393.825,152.876a6.838,6.838,0,1,1,7.573-5.467A6.643,6.643,0,0,1,393.825,152.876Zm2.464-12.5a5.941,5.941,0,1,0,4.211,6.855,5.712,5.712,0,0,0-4.243-6.855Z" transform="translate(-251.555 -110.006)"/><path class="o" d="M390.8,143.217c-3.117-1.828-4.9-1.028-4.9-1.028l-.424-.816c.082,0,2.154-1.061,5.745,1.061Z" transform="translate(-253.052 -108.835)"/><path class="o" d="M396,144.184v-.914c.6,0,14.786.18,16.321.392s4.9,2.987,5.206,3.264l-.6.7a17.17,17.17,0,0,0-4.668-3.085h0C410.917,144.461,400.994,144.249,396,144.184Z" transform="translate(-246.403 -107.468)"/><path class="k" d="M402.688,147.111s5.549-7.1,8.8-5.092-1.208,12.5-5.206,13.758a4,4,0,0,1-5.239-2.432Z" transform="translate(-243.217 -108.485)"/><path class="m" d="M409.329,143.72s.082.082,0,.1a10.054,10.054,0,0,0-5.549,6.039,2.2,2.2,0,0,1,3.264-.424s0,.163-.082.147a2.481,2.481,0,0,0-2.758.7,12.257,12.257,0,0,0-1.4,2.122c-.147.245-.588.082-.473-.2h0C402.556,148.632,405.542,143.867,409.329,143.72Z" transform="translate(-242.415 -107.183)"/><path class="a" d="M394.689,164.236l7.508,12.012,13.154-19.258,5.484,4.439s-11.065,28.822-11.424,27.663l-7.328-10.2-6.316,9.14-2.856-19.585Z" transform="translate(-248.356 -98.796)"/><path class="m" d="M393.888,176.153c-.359-3.264-.816-6.528-1.028-9.792,0-.114.163-.2.212,0,1.191,2.987,2.53,15.439,3.068,18.377h0c.261-.392,5.908-8.16,5.99-8.013,1.469,1.632,6.838,8.993,7.246,9.678,1.746-4.57,8.585-21.3,10.837-25.738a.114.114,0,0,1,.212.082c-1.42,4.749-10.413,27.239-10.625,27.223a130.916,130.916,0,0,1-7.687-10.8c-.9,1.632-6.528,10.184-6.528,9.711a106.2,106.2,0,0,1-1.7-10.723Z" transform="translate(-248.387 -96.513)"/></g><g transform="translate(37.54 203.117)"><path class="o" d="M85.162,213.559s31.956-4.476,24.487-43.059C109.649,170.5,73.93,178.51,85.162,213.559Z" transform="translate(-18.214 -145.956)"/><path class="q" d="M85.162,213.559s31.956-4.476,24.487-43.059C109.649,170.5,73.93,178.51,85.162,213.559Z" transform="translate(-18.214 -145.956)"/><path class="m" d="M86.227,203.1a59.7,59.7,0,0,1,2.181-5.7q0-.363,0-.727c0-.527.1-1.055.143-1.6.086-1.14.157-2.295.228-3.449.128-2.309.285-4.618.314-6.927,0-.128.2-.114.2,0v6.927c0,1.155-.1,2.295-.185,3.449v.77a69.542,69.542,0,0,1,6.414-10.961c1.1-1.539,2.252-3.007,3.492-4.433s2.623-2.851,3.92-4.276c.086-.086.214,0,.128.143a56.744,56.744,0,0,0-6.186,8.167c-.969,1.425-1.9,2.979-2.765,4.5l.3-.114,1.14-.456,2.594-1.083c1.71-.627,3.435-1.254,5.145-1.91.1,0,.171.143,0,.185-1.7.67-3.378,1.425-5.06,2.124l-2.48,1.055c-.413.185-.827.356-1.254.513a3.478,3.478,0,0,1-.841.3c-.641,1.169-1.283,2.323-1.867,3.506a81.419,81.419,0,0,0-3.905,9.208l-.242.67a20.125,20.125,0,0,1,2.623-1.269l3.307-1.511c2.252-1.026,4.476-2.067,6.628-3.278.1-.071.2.114.086.171-2.2,1.2-4.276,2.48-6.542,3.663-1.1.6-2.209,1.183-3.335,1.725A10.574,10.574,0,0,1,87.4,203.7a37.914,37.914,0,0,0-2.1,9.065c-.356,4.362-.314,8.766-.413,13.127h-.114c-.328-3.962-.5-7.968-.513-11.959A34.209,34.209,0,0,1,86.227,203.1Z" transform="translate(-17.668 -143.554)"/><path class="m" d="M89.145,179.163a38.756,38.756,0,0,1,.328,6.8h-.1c-.128-2.252-.157-4.5-.413-6.756C89.017,179.078,89.131,179.035,89.145,179.163Z" transform="translate(-15.669 -142.304)"/><path class="m" d="M95.51,181.095a23.946,23.946,0,0,0,4.119-2.01c.1-.071.2.1.1.157a15.764,15.764,0,0,1-4.162,2C95.5,181.252,95.438,181.138,95.51,181.095Z" transform="translate(-12.897 -142.311)"/><path class="m" d="M83.8,268.032c0-3.535.086-7.055.128-10.59.071-11.73.171-23.461.385-35.192q.228-13.983.641-27.937a.157.157,0,0,1,.086-.128V186.56s0-.1.143-.1.157,0,.157.1v7.654a.185.185,0,0,1,.185.143c.47,16.577.884,33.153.983,49.73v10.12q.171,16.206.128,32.426v5.16c0,9.892-.114,19.784-.114,29.661,0,.542-.584.8-1.212.827s-1.425-.257-1.425-.869c0-10.9-.086-21.808-.086-32.711C83.771,281.786,83.743,274.916,83.8,268.032Z" transform="translate(-17.878 -139.167)"/><path class="o" d="M93.167,238.06s15.365-11.4,29.932-3.692,16.876,37.372,16.876,37.372-21.38,3.064-34.935-9.778C92.083,249.591,93.167,238.06,93.167,238.06Z" transform="translate(-13.889 -119.929)"/><path class="m" d="M92.417,237.421a18.315,18.315,0,0,1,8.894-1.169,14,14,0,0,1,1.9-.185l2.166-.157,4.476-.314c3.036-.228,6.086-.413,9.108-.727a.1.1,0,0,1,0,.2c-2.993.385-5.972.812-8.98,1.112-1.539.157-3.093.314-4.647.428l-1.112.1c.456.114.912.214,1.354.342a36.861,36.861,0,0,1,6.97,2.851c1.212.214,2.423.556,3.606.841,1.9.442,3.791.926,5.7,1.425,3.734.983,7.426,2.081,11.132,3.164.128,0,0,.214,0,.185-3.706-.912-7.426-1.739-11.132-2.623l-5.4-1.3-1.425-.328a44.827,44.827,0,0,1,10.932,9.507,58.651,58.651,0,0,1,7.6,11.973c0,.114-.1.214-.157.1a58.71,58.71,0,0,0-9.193-12.058,2.054,2.054,0,0,0,.2.613l.855,2.722c.57,1.81,1.14,3.62,1.682,5.431,0,.128-.143.171-.185,0-.656-1.753-1.269-3.521-1.881-5.274-.314-.869-.613-1.739-.912-2.608l-.47-1.34a1.422,1.422,0,0,0-.143-.413,54.361,54.361,0,0,0-5.459-4.647,40.95,40.95,0,0,0-8.153-4.675,3.822,3.822,0,0,0,.157.784c.143.7.3,1.425.442,2.1.3,1.425.584,2.851.869,4.376.584,2.979.941,5.986,1.425,8.965a.1.1,0,1,1-.185,0c-.7-2.979-1.582-5.929-2.252-8.937-.328-1.5-.67-2.993-.983-4.49l-.428-2.109a11.458,11.458,0,0,0-.214-1.183l-.827-.342a24.23,24.23,0,0,0-12.828-1.753,12.543,12.543,0,0,0-9.25,7.412c-.143.342-.67.128-.6-.214A11.887,11.887,0,0,1,92.417,237.421Z" transform="translate(-17.33 -118.577)"/><path class="m" d="M106.793,245.564c.428,1.938.869,3.891,1.3,5.844a42.546,42.546,0,0,1,1.069,5.7c0,.071-.1.071-.114,0a43.875,43.875,0,0,1-1.311-5.7c-.385-1.924-.755-3.848-1.126-5.7a.117.117,0,1,1,.185-.143Z" transform="translate(-8.174 -114.048)"/><path class="m" d="M117.164,249c1.967,1,3.863,2.124,5.9,2.936.128,0,0,.242,0,.171a58.7,58.7,0,0,1-5.872-3.036S117.121,249,117.164,249Z" transform="translate(-3.679 -112.567)"/><path class="o" d="M90.746,233.812s18.786,1.2,27.537-11.2,6.77-30.089,6.77-30.089-19.727,2.409-27.566,11.3S90.746,233.812,90.746,233.812Z" transform="translate(-14.932 -136.59)"/><path class="m" d="M84.546,250.273c.656-2.024,1.425-4.005,2.224-5.972s1.511-3.777,2.338-5.63a113.758,113.758,0,0,1,5.7-11.075c1.326-2.295,2.751-4.5,4.276-6.685a5.819,5.819,0,0,1,.157-1l.257-1.753c.185-1.183.4-2.38.6-3.563.428-2.594.969-5.174,1.425-7.768,0-.128.214-.114.2,0-.371,2.566-.627,5.145-1,7.711-.171,1.269-.342,2.523-.527,3.777l-.214,1.425a135.012,135.012,0,0,1,9.293-12.058l1.425-1.539c0-.143.128-.271.185-.428l.4-1.069c.285-.741.556-1.425.812-2.238.527-1.425,1.012-2.965,1.425-4.476,0-.114.214-.071.185,0-.385,1.539-.784,3.079-1.24,4.6-.214.741-.456,1.425-.713,2.181l-.128.371c2.395-2.623,4.9-5.145,7.426-7.64.1-.086.228,0,.143.143a133.978,133.978,0,0,0-13.583,16.334,12.229,12.229,0,0,1,1.425-.342c1.425-.285,2.851-.485,4.376-.67,3.05-.4,6.115-.784,9.165-1.269.114,0,.171.171,0,.2-2.851.57-5.8,1.226-8.695,1.9-1.425.3-2.737.57-4.1.841a28.133,28.133,0,0,0-3.293.941l-.926,1.3c-1.425,2.01-2.694,4.062-3.991,6.129l1.91-.385c1.425-.271,2.851-.542,4.376-.784,2.851-.47,5.7-.969,8.552-1.611a.1.1,0,0,1,0,.185q-4.276,1.026-8.552,2.224c-1.425.371-2.751.713-4.148,1.012l-2.1.456a4.717,4.717,0,0,1-.841.143q-4.1,6.671-7.711,13.655c-1.04,2.053-2.052,4.1-3.022,6.186s-1.867,4.276-2.851,6.485C85.087,250.986,84.4,250.744,84.546,250.273Z" transform="translate(-17.555 -134.507)"/><path class="m" d="M98.23,205.812c.356-1.782.727-3.578,1.126-5.359,0-.128.214-.071.185,0-.356,1.753-.684,3.521-1.012,5.288a51.582,51.582,0,0,1-1.069,5.274h0a38.6,38.6,0,0,1,.77-5.2Z" transform="translate(-12.054 -133.248)"/><path class="m" d="M105.748,204.536c.869-.442,1.8-.784,2.694-1.14l1.425-.556.727-.3a3.293,3.293,0,0,0,.8-.342c.143-.114.228.143.086.171a3.491,3.491,0,0,0-.8.328l-.713.314-1.425.613a28.853,28.853,0,0,1-2.851,1.1C105.705,204.779,105.648,204.579,105.748,204.536Z" transform="translate(-8.554 -132.485)"/><path class="o" d="M94.107,218.56s-11.4-21.252-28.664-24.53S37.55,208.54,37.55,208.54s12.614,16.121,28.507,18.928S94.107,218.56,94.107,218.56Z" transform="translate(-37.536 -136.119)"/><path class="m" d="M49.054,202.5a46.069,46.069,0,0,1,13.569.157l-.77-.413c-1.283-.656-2.566-1.311-3.834-1.981A82.134,82.134,0,0,0,49.9,196.3a.1.1,0,1,1,0-.185c2.708,1.269,5.516,2.323,8.224,3.578,1.425.613,2.694,1.269,4.019,1.967.855.456,1.8.884,2.637,1.425a47.961,47.961,0,0,1,11,3.649l-2.167-2.352c-1.611-1.767-3.193-3.62-4.974-5.231-.086-.086,0-.214.143-.128,1.81,1.639,3.72,3.164,5.488,4.875.841.827,1.653,1.682,2.452,2.566a14.854,14.854,0,0,1,1.169,1.425,45.7,45.7,0,0,1,23.2,31.357c0,.114-.157.185-.185,0A52.452,52.452,0,0,0,88.18,217.72,50.086,50.086,0,0,0,65,204.308a51.2,51.2,0,0,0-15.992-1.425A.2.2,0,0,1,49.054,202.5Z" transform="translate(-32.72 -135.065)"/><path class="q" d="M37.54,204.77S50.168,220.891,66.047,223.7c12.115,2.152,22.078-4.176,26.126-7.283l.869-1.425s-8.181-6.913-23.689-10.89S37.54,204.77,37.54,204.77Z" transform="translate(-37.54 -132.349)"/><path class="m" d="M56.014,195.27a42.666,42.666,0,0,1,3.848,2.537,25.056,25.056,0,0,1,3.335,3.05c.086.1,0,.228-.157.143-1.14-1-2.295-2-3.492-2.936a36.133,36.133,0,0,0-3.535-2.623.1.1,0,0,1,0-.171Z" transform="translate(-29.703 -135.42)"/><path class="m" d="M49.4,197.792c.641.271,1.3.5,1.938.77l1.924.8c.143,0,.071.285,0,.228L51.34,198.8c-.656-.257-1.283-.556-1.924-.812C49.23,197.934,49.288,197.749,49.4,197.792Z" transform="translate(-32.54 -134.35)"/><path class="o" d="M94.963,231.031s-3.05,21.066-18.886,28.507-35.177,0-35.177,0S48.5,213.87,94.963,231.031Z" transform="translate(-36.111 -121.85)"/><path class="m" d="M48.579,244.985c1.425-.171,2.851-.428,4.362-.684l2.138-.4,1.112-.228c.428-.4.841-.8,1.283-1.183a63.367,63.367,0,0,1,9.692-7.027,54.582,54.582,0,0,1,5.815-2.993h-.3l-5.217.228c-3.478.171-6.956.242-10.433.47a.1.1,0,1,1,0-.2c3.492-.242,6.956-.627,10.448-.926l5.06-.442,2.608-.228.67-.071q1.425-.513,2.737-.941a24.615,24.615,0,0,1,13.427-.741c3.991,1.012,7.968,3.635,8.994,7.839,0,.143-.185.242-.242.1-1.5-3.521-5.388-5.288-8.908-6.015A20.967,20.967,0,0,0,84.7,231.4a15.863,15.863,0,0,1-.8,3.193c-.428,1.425-.869,2.965-1.311,4.447-.9,2.95-1.9,5.887-2.765,8.851a.1.1,0,1,1-.185,0c.727-2.95,1.425-5.944,2.067-8.908.342-1.425.713-2.851,1.069-4.362a28.336,28.336,0,0,1,.8-2.993,39.917,39.917,0,0,0-4.1.969,60.328,60.328,0,0,0-7.127,2.637c-.228,1.5-.57,2.993-.912,4.476-.428,1.853-.912,3.692-1.511,5.516,0,.114-.2,0-.171,0s0-.228.071-.342h0c.356-1.725.741-3.449,1.1-5.16.3-1.425.57-2.851.869-4.176-1.967.884-3.905,1.853-5.773,2.922a7.141,7.141,0,0,1-.214,1.269c-.114.727-.242,1.425-.371,2.167-.3,1.625-.627,3.236-1.012,4.846a78.666,78.666,0,0,1-2.722,9.165.114.114,0,0,1,0,.128l-.086.1c0,.086-.185,0-.157-.1.727-3.121,1.568-6.214,2.252-9.35.342-1.568.684-3.136,1-4.7.157-.784.314-1.568.456-2.366a1.563,1.563,0,0,1,.114-.7,66.989,66.989,0,0,0-15.679,12.742c-.114.128-.342,0-.228-.2,1.212-1.582,2.409-3.136,3.777-4.6.8-.855,1.625-1.682,2.466-2.48h-.271c-.741.128-1.425.228-2.224.328-1.425.2-2.936.342-4.4.513C48.507,245.184,48.465,245,48.579,244.985Z" transform="translate(-32.871 -121.066)"/><path class="m" d="M56.38,246.889h0l.086-.542a4.287,4.287,0,0,1,.2-.7h0c.328-1.425.6-2.851.855-4.276,0-.1.171,0,.171,0a17.375,17.375,0,0,1-1.2,5.5H56.38Z" transform="translate(-29.527 -115.83)"/><path class="m" d="M65.689,248.5a.1.1,0,0,1,.1-.086c.442-1.867.869-3.734,1.254-5.616.2-.983.413-1.967.6-2.965l.3-1.6a4.817,4.817,0,0,1,.342-1.425.1.1,0,0,1,.171,0,8.723,8.723,0,0,1-.4,2.851c-.185,1.026-.385,2.052-.613,3.079-.456,2.081-.983,4.148-1.568,6.2,0,.114-.214.086-.214,0Z" transform="translate(-25.58 -117.77)"/><path class="m" d="M49.6,236.349c2.851-.4,5.787-.812,8.68-1.169.128,0,.171.171,0,.185-2.851.428-5.8.784-8.695,1.169C49.532,236.491,49.475,236.349,49.6,236.349Z" transform="translate(-32.442 -118.445)"/><path class="o" d="M95.707,213.03s9.707-42.546-36-59.75C59.7,153.28,47.032,209.267,95.707,213.03Z" transform="translate(-28.745 -153.28)"/><path class="m" d="M83.229,184.356l-.485-.3-2.594-1.425-5.3-2.936c-3.478-1.953-6.927-3.977-10.433-5.887-.114,0,0-.228.1-.171,3.521,1.91,7.127,3.706,10.633,5.573l5.245,2.851,2.138,1.126c-1.525-2.851-3.15-5.7-4.946-8.452-2.38-3.649-5-7.127-7.725-10.519a.157.157,0,0,1,.228-.214,73.375,73.375,0,0,1,10.562,12.842c0-.143,0-.3,0-.442,0-1.055,0-2.109-.1-3.178,0-2.067.071-4.148,0-6.229,0-.128.185-.114.2,0,.086,2.053.328,4.091.442,6.129,0,1.026.1,2.038.128,3.064v1.782c.941,1.5,1.839,3.022,2.694,4.561a77.494,77.494,0,0,1,4.091,8.552c0-1.069.1-2.124.171-3.179.128-2.338.413-4.647.513-6.984a.1.1,0,1,1,.2,0v6.984a28.618,28.618,0,0,1-.143,3.492l-.086,1.3a78.225,78.225,0,0,1,3.449,11.688,125.943,125.943,0,0,1,1.71,12.828h0a68.587,68.587,0,0,0-2.423-11.4c-.57-2.01-1.155-4.005-1.81-5.986-1.9-.9-3.72-2.01-5.559-3.036s-3.82-2.1-5.7-3.136c-3.82-2.1-7.626-4.276-11.559-6.072-.114,0,0-.214.1-.157,3.991,1.8,8.01,3.521,11.916,5.488,1.953.969,3.863,2.024,5.7,3.093a54.107,54.107,0,0,1,4.732,2.851c-.442-1.326-.912-2.637-1.425-3.948A103.906,103.906,0,0,0,83.229,184.356Z" transform="translate(-26.13 -148.737)"/><path class="m" d="M80.453,171.479c0-.128.214-.128.2,0-.157,2.437-.242,4.86-.5,7.283,0,.128-.228.128-.214,0C80.026,176.311,80.282,173.9,80.453,171.479Z" transform="translate(-19.506 -145.58)"/><path class="m" d="M64.962,177.152c2.851,1.155,5.7,2.238,8.552,3.435.071,0,0,.157,0,.128-2.851-1.083-5.7-2.252-8.552-3.378C64.791,177.294,64.848,177.109,64.962,177.152Z" transform="translate(-25.922 -143.129)"/><path class="m" d="M61.925,163.382a75.351,75.351,0,0,1,8.124,4.362c.143.086,0,.285-.128.214-2.651-1.554-5.345-3.036-8.1-4.4C61.711,163.5,61.811,163.339,61.925,163.382Z" transform="translate(-27.232 -148.986)"/><rect class="l" width="65.922" height="69.485" transform="translate(101.313 221.226) rotate(180)"/><rect class="m" width="3.378" height="119.016" transform="translate(102.467 176.328)"/><rect class="m" width="3.378" height="119.016" transform="translate(31.201 176.328)"/><rect class="m" width="3.378" height="119.016" transform="translate(65.038 176.328)"/><rect class="m" width="71.267" height="9.621" transform="translate(104.164 226.386) rotate(180)"/></g><g transform="translate(40.376 497.691)"><path class="m" d="M39.53,360.663l75-.342,74.987-.128,150-.242,150,.242,74.987.128,75,.342-75,.356-74.987.128-150,.228-150-.242L114.531,361Z" transform="translate(-39.53 -359.95)"/></g><g transform="translate(115.237 102.94)"><path class="r" d="M291.726,467.5c-3.179.969-93.288-1.767-96.652-4.062-1.3-.841-5.944-84.736-5.944-84.736l58.439,1.425,4.019,54.975s34.023,16.477,37.458,19.385S294.9,466.486,291.726,467.5Z" transform="translate(-50.76 42.776)"/><path class="m" d="M194.015,445.137c3.35,2.281,93.474,5.031,96.652,4.048s.67-10.091-2.737-12.985c-1.938-1.625-13.541-7.554-23.333-12.429,6.585,3.464,20.14,15.351-20.91,8.552-27.78-4.647-44.5-8.552-52.068-10.733C191.72,434.461,192.9,444.4,194.015,445.137Z" transform="translate(-49.701 61.018)"/><path class="n" d="M265.676,492.8l-59.75,2.936s-11.4-7.483-14.1-21.024c-7.668-39.639,5.131-113.542,4.761-115.524-.656-3.392-45.14-166.764-45.14-166.764h57.085s47.535,145.456,50.842,159.552c4.49,19.2,7,80.931,13.07,116.678a28.507,28.507,0,0,1-6.77,24.145Z" transform="translate(-66.787 -36.456)"/><path class="m" d="M196.558,359.114c-1.311-5.844-45.1-166.764-45.1-166.764h28.065Z" transform="translate(-66.782 -36.486)"/><path class="r" d="M184.758,481.732c-3.321.128-89.8-25.314-92.476-28.378-1.041-1.14,1.924-13.968,5.972-29.348l.128-.485c.827-3.164,18.43-55.332,18.43-55.332L172.1,384.311l-17.745,55-.3.941s28.749,24.544,31.357,28.222S188.079,481.618,184.758,481.732Z" transform="translate(-92.042 38.305)"/><path class="m" d="M96.254,412.72c-2.965,11.788-4.86,20.739-3.991,21.694,2.68,3.064,89.155,28.507,92.476,28.378s3.207-9.593.641-13.256c-1.582-2.238-12.828-12.229-21.451-19.7,5.7,5.4,13.6,17.888-23.119,2.851C118.19,423.538,104.122,416.768,96.254,412.72Z" transform="translate(-92.051 57.246)"/><path class="n" d="M229.376,192.37s-1.425,46.494-10.177,56.087c0,0-14.481,93.189-17.631,119.13s-14.738,80.147-26.383,109.523c-5,12.657-16.748,19.655-16.748,19.655l-56.771-13.213s-9.678-22.421-4.49-34.294c14.253-32.7,44.642-86.361,44.87-88.114,1.753-13.655,11.118-107.285,10.334-109.637-8.067-24.031,5.06-59.137,5.06-59.137Z" transform="translate(-90.522 -36.477)"/><path class="m" d="M200.988,226.146a83.283,83.283,0,0,1-14.766,7.212,156.288,156.288,0,0,1-15.451,5.43c-.185,0-.1.328.086.285,5.117-1.425,10.305-2.437,15.322-4.191-.428,1.71-.656,3.492-.941,5.2-.371,2.209-.727,4.419-1.055,6.628-.67,4.433-1.24,8.88-1.839,13.327-1.212,8.894-2.48,17.774-3.677,26.668-.656,4.946-1.3,9.906-1.725,14.88a.186.186,0,0,0,.371,0c1.753-8.78,2.936-17.66,4.276-26.525s2.751-17.7,3.962-26.583c.342-2.537.684-5.088.983-7.64a61.9,61.9,0,0,0,.627-6.314h.086a47.449,47.449,0,0,0,14.025-8.067C201.43,226.317,201.188,225.96,200.988,226.146Z" transform="translate(-58.613 -22.134)"/><path class="m" d="M188.53,198.266c0-.2-.413-.214-.385,0,.727,7.269.869,13.712.9,20.568,0,3.178-.884,20.867-6.485,20.111-.941-.128-1.425-.983-1.753-2.352a21.609,21.609,0,0,1,.214-5.416c.271-3.72.413-7.426.371-11.146a100.108,100.108,0,0,0-2.154-20.662.185.185,0,0,0-.355.009,188.486,188.486,0,0,1,1.012,28.635c-.257,4.6-1.9,11.645,2.851,11.9S189.7,228.441,190,225.248A105.375,105.375,0,0,0,188.53,198.266Z" transform="translate(-55.12 -34.035)"/><path class="m" d="M181.936,227.222a32.786,32.786,0,0,0-.884,3.72,8.353,8.353,0,0,0-.228,3.022c0,.2.285.185.385,0a11.076,11.076,0,0,0,1-3.022c.314-1.155.641-2.309.926-3.478a.613.613,0,0,0-1.2-.242Z" transform="translate(-54.313 -21.841)"/><path class="m" d="M152.076,140.143a4.447,4.447,0,0,0,3.264,8.025,4.661,4.661,0,0,0,0,1.881,4.9,4.9,0,0,0,5.431,3.763,4.276,4.276,0,0,0,.071,1.582,4.476,4.476,0,0,0,5.359,3.335,4.361,4.361,0,0,0,2.551-1.611,4.447,4.447,0,0,0,5.259,2.965,4.276,4.276,0,0,0,1.682-.8,4,4,0,0,0,.086.4,4.476,4.476,0,0,0,8.467.7,4.39,4.39,0,0,0,5.017,2.452,4.447,4.447,0,0,0,3.293-3.093,4.989,4.989,0,0,0,3.236.342,4.789,4.789,0,0,0,3.064-2.238,4.9,4.9,0,0,0,7.5-3.891,4.574,4.574,0,0,0,1.753,0,4.447,4.447,0,0,0,3.421-4.775,4.632,4.632,0,0,0,2.167,0,4.875,4.875,0,0,0,3.064-7.369,2.437,2.437,0,0,0,.77-.1,4.447,4.447,0,0,0,3.35-5.345,4.276,4.276,0,0,0-1.169-2.109,4.889,4.889,0,0,0,3.235-5.7,4.8,4.8,0,0,0-1.311-2.352,4.932,4.932,0,0,0,2.1-5.217,4.86,4.86,0,0,0-2.737-3.335,4.39,4.39,0,0,0,.67-3.535,4.276,4.276,0,0,0-2.2-2.851,4.9,4.9,0,0,0-3.378-8.025,4.5,4.5,0,0,0,0-2.138,4.433,4.433,0,0,0-4.761-3.435,4.79,4.79,0,0,0,0-2.11,4.917,4.917,0,0,0-5.887-3.677,4.147,4.147,0,0,0-1.069.4,3.906,3.906,0,0,0-.128-.784,4.9,4.9,0,0,0-5.872-3.677,5.074,5.074,0,0,0-1.155.428,4.561,4.561,0,0,0-.1-1.425A4.932,4.932,0,0,0,188.08,85.4a4.8,4.8,0,0,0-4.618-1.425,4.9,4.9,0,0,0-3.007,2.081,4.447,4.447,0,0,0-4.917-2.238A4.5,4.5,0,0,0,172.3,86.75a4.433,4.433,0,0,0-7.127,3.107,4.86,4.86,0,0,0-3.905-.77A4.96,4.96,0,0,0,157.45,94a4.176,4.176,0,0,0-1.625,0,4.461,4.461,0,0,0-3.335,5.359,4.275,4.275,0,0,0,.641,1.425h-.285a4.917,4.917,0,0,0-3.62,6.043,4.689,4.689,0,0,0,.527,1.326,3.705,3.705,0,0,0-1.183.114,4.433,4.433,0,0,0-3.335,5.331,4.376,4.376,0,0,0,2.01,2.851,4.447,4.447,0,0,0,.57,7.127,4.889,4.889,0,0,0,1.9,9.108,4.355,4.355,0,0,0,2.366,7.454Z" transform="translate(-69.48 -82.997)"/><path class="r" d="M175.325,148.806c8.067,22.364,26.141,49.887,36.089,56.016,9.265,5.7,38.8-2.309,54.59-8.381,7.127-2.708-3.25-36.46-12.13-34.849-5.53,1.012-33.41,10.12-35.163,8.752-8.552-6.671-11.6-11.4-29.091-26.34C180.742,136.406,170.166,134.524,175.325,148.806Z" transform="translate(-57.209 -59.534)"/><path class="r" d="M234.8,195.324c4.689-.171,22.221-2.452,33.5-7.583,5.473-2.494,20.425-11.3,18.829-15.679s-6.186-2.152-6.186-2.152,5.7-4.675,3.763-8.894-9.037-.584-9.037-.584,5.559-5.231,3.264-9.307-8.766.784-8.766.784,5.317-4.547,2.01-7.127c-3.977-3.079-12.828,6.4-19,8.851-1.425.556-29.276,9.25-29.276,9.25Z" transform="translate(-35.971 -56.977)"/><path class="m" d="M262.174,149.656c-6.528,6.956-10.576,8.866-19.655,11.232-.185,0-.157.328,0,.285,9.094-1.5,14.524-3.164,19.955-11.217C262.787,149.57,262.487,149.328,262.174,149.656Z" transform="translate(-28.107 -54.71)"/><path class="m" d="M266.782,155.492c-7.4,6.628-11.773,8.752-21.109,11.93-.128,0-.071.271,0,.228,9.407-2.338,14.8-4.133,21.38-11.731C267.352,155.578,267.124,155.193,266.782,155.492Z" transform="translate(-26.743 -52.209)"/><path class="m" d="M270.009,162.669c-7.626,5.9-12.329,8.424-21.779,10.348a.185.185,0,0,0,0,.356c9.835-1.026,15.679-4.133,21.893-10.448C270.594,162.484,270.494,162.3,270.009,162.669Z" transform="translate(-25.68 -49.194)"/><path class="r" d="M221.3,163.456s7.412-9.364,11.574-12.757,24.359-10.319,26.1-6.058c2.252,5.53-8.552,11.816-14.339,14.253,0,0,5.231,12.757-1.582,18.957S221.3,163.456,221.3,163.456Z" transform="translate(-37.077 -57.35)"/><path class="m" d="M252.492,145.45c-1.568,6.514-9.279,9.165-14.667,11.9a.542.542,0,0,0-.157.884c1.824,5.5,2.851,13.783-.841,18.686a.143.143,0,0,0,.214.185c4.632-4.732,4.276-12.942,1.924-18.829,5.573-2.722,13.184-5.7,13.6-12.828Z" transform="translate(-30.483 -56.434)"/><path class="d" d="M211.7,163.282l-21.38,28.507s-16.89-35.291-18.914-47.036c-2.295-13.256,4.989-11.531,15.493-4.276S211.7,163.282,211.7,163.282Z" transform="translate(-58.479 -60.924)"/><path class="m" d="M200.5,152.817c-3.207,3.264-11.4,14.4-12.828,16.22-.727.969-3.464,4.932-4.2,5.887-.086.128.114.242.214.128,1.425-1.824,2.993-3.506,4.4-5.316s10.205-12.828,12.529-16.8A.081.081,0,0,0,200.5,152.817Z" transform="translate(-53.178 -53.311)"/><path class="m" d="M207.719,168.255l-17.346,23.176s-16.89-35.306-18.928-47.036c-.77-4.518-.442-7.3.741-8.695Z" transform="translate(-58.459 -60.581)"/><path class="d" d="M211.55,200.878l2.623,17.261L139.1,217.5s5.573-54.776,26.711-76.127c10.576-10.676,22.492-9.407,29.832-1.425,1.853,2.024,20.7,28.72,22.706,40.423C220.088,190.687,211.55,200.878,211.55,200.878Z" transform="translate(-72.04 -61.448)"/><path class="m" d="M188.155,176.911a79.819,79.819,0,0,0-11.887,1.981c-1.924.5-3.82,1.083-5.7,1.71-.955.314-1.9.6-2.851.869a12.528,12.528,0,0,1-3.064.584.071.071,0,0,0,0,.143,22.663,22.663,0,0,0,2.95,0,21.215,21.215,0,0,0,2.851-.542c1.967-.485,3.905-1.069,5.872-1.582,3.948-1.012,7.911-2.038,11.93-2.851C188.383,177.2,188.34,176.882,188.155,176.911Z" transform="translate(-61.202 -43.054)"/><path class="m" d="M194.013,179.518a88.721,88.721,0,0,0-9.977-.456c-1.668,0-3.307.143-4.96.3l-2.366.271c-.855.114-1.71.342-2.58.442-.086,0-.086.157,0,.143.812-.071,1.653,0,2.466,0l2.48-.071,4.96-.128c3.307-.128,6.6-.214,9.906-.214a.147.147,0,1,0,.071-.285Z" transform="translate(-57.168 -42.14)"/><path class="r" d="M165.26,142.693c0,1.511,4.6,12.5,11.246,13.769,2.167.413,4.946-11.3,4.946-11.3l.4-.812,5.63-11.4-12.03-12.557-1.767-1.7s-1.326,3.236-2.95,7.283c0,.185-.157.371-.228.57s-.2.442-.271.656c-.257.6-.5,1.212-.741,1.839s-.371.926-.542,1.425l-.542,1.425A81.093,81.093,0,0,0,165.26,142.693Z" transform="translate(-60.913 -67.816)"/><path class="m" d="M185.984,132.9l-5.4,11a27.3,27.3,0,0,1-11.8-16.847l.456-1.14c1.625-4.034,2.95-7.269,2.95-7.269l1.767,1.7Z" transform="translate(-59.416 -67.833)"/><path class="r" d="M207.547,126.031c-2,22.307-15.579,23.632-20.4,23.19-4.362-.385-19.185-2.295-19.5-24.687s10.676-28.507,20.71-28.15S209.486,103.725,207.547,126.031Z" transform="translate(-59.898 -77.31)"/><path class="m" d="M194.221,114.654a14.057,14.057,0,0,1-1.425-.542,2.409,2.409,0,0,1-1.425-.827.784.784,0,0,1,.143-.955,2,2,0,0,1,2-.185,2.965,2.965,0,0,1,1.653,1.283.855.855,0,0,1-.941,1.226Z" transform="translate(-49.85 -70.678)"/><path class="m" d="M183.513,113.545a14.258,14.258,0,0,0,1.554-.1,2.48,2.48,0,0,0,1.554-.4.827.827,0,0,0,.143-.969,2.038,2.038,0,0,0-1.867-.741,2.979,2.979,0,0,0-1.953.755.855.855,0,0,0,.57,1.454Z" transform="translate(-53.496 -70.952)"/><path class="m" d="M185.63,116.27s-.128,0-.128.114c-.143,1.525-.556,3.236-1.981,3.578v.086C185.216,120.019,185.744,117.724,185.63,116.27Z" transform="translate(-53.146 -68.845)"/><path class="m" d="M184.873,115.01c-2.409-.485-3.207,4.376-.969,4.832S186.9,115.466,184.873,115.01Z" transform="translate(-53.544 -69.396)"/><path class="m" d="M184.352,115.28c-.47.214-.969.627-1.425.6s-.969-.613-1.283-1.169h-.086a1.8,1.8,0,0,0,1.012,2.238c.9.271,1.682-.442,2.067-1.34C184.652,115.48,184.538,115.209,184.352,115.28Z" transform="translate(-54.021 -69.509)"/><path class="m" d="M190.976,117s.114.086.1.143c-.271,1.425-.328,3.264.955,3.977h0C190.377,120.692,190.477,118.34,190.976,117Z" transform="translate(-50.112 -68.535)"/><path class="m" d="M192.541,116c2.466.185,1.924,5.074-.342,4.9S190.474,115.872,192.541,116Z" transform="translate(-50.08 -68.961)"/><path class="m" d="M192.776,116.331c.356.3.684.812,1.14.884s.984-.385,1.425-.855h0a1.791,1.791,0,0,1-1.425,1.967c-.941.086-1.425-.8-1.425-1.753C192.463,116.445,192.619,116.2,192.776,116.331Z" transform="translate(-49.332 -68.835)"/><path class="m" d="M182.821,124.861c.285.428.542.983,1.069,1.14a3.934,3.934,0,0,0,1.682,0v.086a2.038,2.038,0,0,1-2.052.428,1.625,1.625,0,0,1-.9-1.568C182.65,124.8,182.778,124.8,182.821,124.861Z" transform="translate(-53.53 -65.207)"/><path class="m" d="M184.318,126.726a5.1,5.1,0,0,0,3.207,2.509,6.53,6.53,0,0,0,1.824.214h.684a.356.356,0,0,0,.314-.314h0a.3.3,0,0,0,0-.157h0v-.128c.114-1.14.128-2.851.128-2.851.4.242,2.466,1.425,2.48.755a76.255,76.255,0,0,0-.841-15.479c0-.171-.271-.143-.271,0-.257,4.789.328,9.578.143,14.382a8.366,8.366,0,0,0-2.338-.9,31.913,31.913,0,0,0,0,3.891h0a7.126,7.126,0,0,1-5.131-2.024C184.361,126.512,184.233,126.612,184.318,126.726Z" transform="translate(-52.818 -71.02)"/><path class="m" d="M189.053,124.668a6.143,6.143,0,0,1-2.751,1.425,2.751,2.751,0,0,1-1.682-.171c-1.154-.513-1.012-1.625-.627-2.537a6.543,6.543,0,0,1,.77-1.425A7.982,7.982,0,0,0,189.053,124.668Z" transform="translate(-53.063 -66.425)"/><path class="s" d="M186.3,125.718a2.751,2.751,0,0,1-1.682-.171c-1.154-.513-1.012-1.625-.627-2.537A2.851,2.851,0,0,1,186.3,125.718Z" transform="translate(-53.063 -65.979)"/><path class="m" d="M168.837,124.551c3.578.869,5.7-6.571,5.7-6.571s7.34,1.24,11.517-8.923a16.449,16.449,0,0,1-4.7,8.2s13.184.77,20.439-9.165c0,0-3.093,5.16-5.459,6.785a15.365,15.365,0,0,0,9.065-4.59s1.226,6.642,2.694,8.652c0,0,3.221-22.805-18.187-23.817,0,0-13.284-1.311-19.741,8.31S168.837,124.551,168.837,124.551Z" transform="translate(-60.214 -77.868)"/><path class="o" d="M169.138,126.483c.4,3.193-4.917-12.087-4.6-14.253S170.392,99.573,180.213,96c8.267-2.979,17.56.827,19.185,1.511a13.811,13.811,0,0,1,4.818,3.25s-12.187-5.046-23.233-3.107C175.652,98.6,167.627,114.511,169.138,126.483Z" transform="translate(-61.227 -77.947)"/><path class="o" d="M172.83,96.864s3.193-6.343,9.25-7.554c0,0,.271,6.086-1.71,8.267-.983,1.083-5.7,1.9-6.357,1.155a11.588,11.588,0,0,1-1.183-1.867Z" transform="translate(-57.693 -80.312)"/><path class="t" d="M172.83,95.248A11.642,11.642,0,0,0,174,97.1a.243.243,0,0,0,.114.086.413.413,0,0,0,.143.086h.128a6.557,6.557,0,0,0,2.651-.086,13.31,13.31,0,0,0-.884-2.566,3.905,3.905,0,0,0-1.967-1.511,13.867,13.867,0,0,0-1.354,2.138Z" transform="translate(-57.693 -78.696)"/><path class="o" d="M175.577,95.3s-8.623-.6-12.557,1.6c0,0,2.594,4.276,6.956,4.974,1.953.342,7.241-3.606,6.856-4.575A8.394,8.394,0,0,0,175.577,95.3Z" transform="translate(-61.866 -77.795)"/><path class="t" d="M170.48,95.23a4.86,4.86,0,0,0,.385,2.851,4.276,4.276,0,0,0,1.24,1.311c1.026-.855,1.725-1.668,1.582-2.052a9.136,9.136,0,0,0-1.254-2A14.726,14.726,0,0,0,170.48,95.23Z" transform="translate(-58.721 -77.794)"/><path class="o" d="M171.446,97.976a2.851,2.851,0,1,0,.869-3.877A2.851,2.851,0,0,0,171.446,97.976Z" transform="translate(-58.461 -78.473)"/><path class="r" d="M172.643,119.547s-3.592-7.74-7.027-6.571-1.582,11.788,1.853,13.8a3.777,3.777,0,0,0,5.345-1.112Z" transform="translate(-61.539 -70.298)"/><path class="m" d="M165.541,115.07s-.086,0,0,.086c2.395,1.5,3.321,4.119,3.834,6.77a2.1,2.1,0,0,0-2.993-1.112c-.071,0,0,.157,0,.143a2.366,2.366,0,0,1,2.38,1.254,11.246,11.246,0,0,1,.841,2.252c.085.257.513.214.47,0h0C170.73,121.056,169.062,116.025,165.541,115.07Z" transform="translate(-60.809 -69.356)"/><path class="a" d="M168.94,122.613a1.1,1.1,0,1,1-.9-1.269,1.083,1.083,0,0,1,.9,1.269Z" transform="translate(-60.274 -66.694)"/><path class="l" d="M276.549,137.488a11.9,11.9,0,0,1-1.867,5.8,5.408,5.408,0,0,0-.242-1.2,11.131,11.131,0,0,0-.356-1.254,23.76,23.76,0,0,0-4.518-7.8l-.67-.784-.185-.2h0c-.1-.128-.228-.228-.328-.356-18.287-23.19-35.719,14.382-36.09,15.251h0s-1.012-37.472,18.971-38.484C266.914,107.641,277.49,125.914,276.549,137.488Z" transform="translate(-32.405 -72.175)"/><path class="m" d="M274.65,136.237a7.853,7.853,0,0,1-1.639,1.725c-9.55,7.312-38.84,2.281-40.665,1.967h-.086c27.537,2.651,35.092-7.369,36.417-14.909l.185.2.67.784a24.231,24.231,0,0,1,4.518,7.8c.143.428.257.841.356,1.254A5.29,5.29,0,0,1,274.65,136.237Z" transform="translate(-32.415 -65.124)"/><path class="l" d="M200.836,141.163a11.688,11.688,0,0,0,2.409,5.6,9.178,9.178,0,0,1,.128-1.226,11.074,11.074,0,0,1,.228-1.283,23.661,23.661,0,0,1,3.763-8.2c.185-.271.371-.556.584-.841l.157-.214h0c.1-.128.214-.257.3-.385,16.007-24.829,36.93,10.918,37.372,11.745h0s-2.58-37.4-22.563-36.531C207.564,110.519,198.812,129.718,200.836,141.163Z" transform="translate(-45.904 -71.589)"/><path class="m" d="M202.44,139.249a7.512,7.512,0,0,0,1.8,1.554c10.191,6.371,38.883-1.425,40.665-1.91h.086c-27.167,5.259-35.633-3.991-37.686-11.4l-.157.214c-.214.285-.4.57-.584.841a24.045,24.045,0,0,0-3.763,8.2c-.1.442-.171.869-.228,1.283A9.178,9.178,0,0,0,202.44,139.249Z" transform="translate(-45.099 -64.073)"/><path class="o" d="M295.676,142.58H197l8.153,111.247h80.36Z" transform="translate(-47.413 -57.655)"/><path class="a" d="M198.6,148.589a1.682,1.682,0,0,1-1.055,1.582l-.228-3.264A1.725,1.725,0,0,1,198.6,148.589Zm19.883-1.739a1.739,1.739,0,1,0,1.725,1.739,1.739,1.739,0,0,0-1.725-1.739Zm21.608,0a1.739,1.739,0,1,0,1.725,1.739,1.739,1.739,0,0,0-1.725-1.739Zm21.608,0a1.739,1.739,0,1,0,1.739,1.739A1.739,1.739,0,0,0,261.7,146.85Zm21.608,0a1.739,1.739,0,1,0,1.739,1.739A1.739,1.739,0,0,0,283.311,146.85Zm-64.824,33.41A1.739,1.739,0,1,0,220.211,182a1.739,1.739,0,0,0-1.725-1.739Zm21.608,0A1.739,1.739,0,1,0,241.819,182a1.739,1.739,0,0,0-1.725-1.739Zm21.608,0A1.739,1.739,0,1,0,263.441,182,1.739,1.739,0,0,0,261.7,180.26Zm21.608,0A1.739,1.739,0,1,0,285.049,182,1.739,1.739,0,0,0,283.311,180.26ZM207.682,164.4a1.725,1.725,0,1,0,1.225.51,1.739,1.739,0,0,0-1.225-.51Zm21.608,0a1.725,1.725,0,1,0,1.225.51,1.739,1.739,0,0,0-1.225-.51Zm21.608,0a1.739,1.739,0,1,0,1.739,1.739A1.739,1.739,0,0,0,250.9,164.4Zm21.608,0a1.739,1.739,0,1,0,1.739,1.739A1.739,1.739,0,0,0,272.507,164.4Zm19.855,1.725a1.711,1.711,0,0,0,.713,1.425l.257-2.965A1.739,1.739,0,0,0,292.361,166.121Zm-73.9,47.563a1.711,1.711,0,1,0,.028,0Zm21.608,0a1.711,1.711,0,1,0,.028,0Zm21.608,0a1.726,1.726,0,1,0,.029,0Zm21.608,0a1.727,1.727,0,1,0,.028,0Zm-75.6-15.878a1.739,1.739,0,1,0,1.725,1.739,1.739,1.739,0,0,0-1.725-1.739Zm21.608,0a1.739,1.739,0,1,0,1.725,1.739,1.739,1.739,0,0,0-1.725-1.739Zm21.608,0a1.739,1.739,0,1,0,1.739,1.739A1.739,1.739,0,0,0,250.9,197.806Zm21.608,0a1.739,1.739,0,1,0,1.739,1.739A1.739,1.739,0,0,0,272.507,197.806Zm-54.02,49.288a1.725,1.725,0,1,0,1.225.51,1.739,1.739,0,0,0-1.225-.51Zm21.608,0a1.725,1.725,0,1,0,1.225.51,1.739,1.739,0,0,0-1.225-.51Zm21.608,0a1.739,1.739,0,1,0,1.739,1.739,1.739,1.739,0,0,0-1.739-1.739Zm21.608,0a1.739,1.739,0,1,0,1.739,1.739,1.739,1.739,0,0,0-1.739-1.739Zm-75.628-15.935a1.739,1.739,0,1,0,1.725,1.739,1.739,1.739,0,0,0-1.725-1.739Zm21.608,0a1.739,1.739,0,1,0,1.725,1.739,1.739,1.739,0,0,0-1.725-1.739Zm21.608,0a1.739,1.739,0,1,0,1.739,1.739,1.739,1.739,0,0,0-1.739-1.739Zm21.608,0a1.739,1.739,0,1,0,1.739,1.739,1.739,1.739,0,0,0-1.739-1.739Z" transform="translate(-47.277 -55.839)"/><path class="o" d="M295.859,142.58H261.153L259.1,253.828l27.552-1.383Z" transform="translate(-20.999 -57.655)"/><path class="a" d="M278.262,148.589a1.739,1.739,0,1,1-1.739-1.739A1.739,1.739,0,0,1,278.262,148.589Zm-1.739,31.671a1.717,1.717,0,1,0,.043,0Zm-10.8-15.864a1.716,1.716,0,1,0,.043,0Zm21.608,0a1.716,1.716,0,1,0,.043,0Zm-10.8,49.288a1.693,1.693,0,1,0,.043,0Zm-10.8-15.878a1.718,1.718,0,1,0,.043,0Zm21.608,0a1.739,1.739,0,0,0,0,3.478,1.71,1.71,0,0,0,1.425-.727l.157-1.782a1.739,1.739,0,0,0-1.539-.969Zm-10.8,49.288a1.716,1.716,0,1,0,.043,0Zm-10.761-15.935A1.739,1.739,0,1,0,267.5,232.9a1.739,1.739,0,0,0-1.739-1.739Zm19.869,1.753a1.539,1.539,0,0,0,.342,1l.185-2.252a1.739,1.739,0,0,0-.527,1.311Z" transform="translate(-18.924 -55.839)"/><path class="q" d="M295.859,142.58H261.153L259.1,253.828l27.552-1.383Z" transform="translate(-20.999 -57.655)"/><path class="o" d="M193.81,138.54V162l94.842-2.908V132.24Z" transform="translate(-48.769 -62.053)"/><circle class="a" cx="1.739" cy="1.739" r="1.739" transform="translate(147.848 91.011)"/><circle class="a" cx="1.739" cy="1.739" r="1.739" transform="translate(169.471 91.011)"/><circle class="a" cx="1.739" cy="1.739" r="1.739" transform="translate(191.079 91.011)"/><circle class="a" cx="1.739" cy="1.739" r="1.739" transform="translate(212.687 91.011)"/><path class="a" d="M259.908,148.589a1.739,1.739,0,1,1-1.739-1.739,1.739,1.739,0,0,1,1.739,1.739Z" transform="translate(-22.135 -55.839)"/><path class="a" d="M206.836,137.368a1.739,1.739,0,1,1-3.464,0,1.682,1.682,0,0,1,.641-1.326l2.024-.143a1.782,1.782,0,0,1,.8,1.468Z" transform="translate(-44.705 -60.496)"/><circle class="a" cx="1.739" cy="1.739" r="1.739" transform="translate(180.275 75.133)"/><circle class="a" cx="1.739" cy="1.739" r="1.739" transform="translate(201.883 75.133)"/><circle class="a" cx="1.739" cy="1.739" r="1.739" transform="translate(223.491 75.133)"/><path class="q" d="M193.81,138.54V162l94.842-2.908V132.24Z" transform="translate(-48.769 -62.053)"/><path class="o" d="M296.026,162l-35.676-2.908V132.24l37.7,6.3Z" transform="translate(-20.468 -62.053)"/><path class="a" d="M278.262,153.323a1.739,1.739,0,1,1-1.739-1.739A1.739,1.739,0,0,1,278.262,153.323Zm-12.543-17.6a1.718,1.718,0,1,0,.043,0Zm21.608,0a1.718,1.718,0,1,0,.043,0Z" transform="translate(-18.924 -60.573)"/><path class="l" d="M245,258.092H222.708L220.47,135.413l26.312-1.753Z" transform="translate(-37.43 -61.449)"/><path class="n" d="M267.23,257.969h7.583l7.811-122.251-10.59-1.767Z" transform="translate(-17.541 -61.325)"/><path class="r" d="M157.58,159.95c5.074,22.549,14.253,69.656,28.264,79.448,18.444,12.828,62.13,9.479,73.733,9.022,5.06-.2,5.7-33.894,1.539-37.344s-51.2-4.276-54.947-5.83-20.838-35.02-31.357-51.569C161.514,132.8,153.3,140.85,157.58,159.95Z" transform="translate(-64.664 -58.177)"/><path class="r" d="M241.63,197.487c-2.452-.812-2.038-2.109,2.281-3.649s22.805-3.991,21.38-10.334-27.324-2.537-34.322.584-17.218,10.633-17.218,10.633C218.91,194.993,231.438,196.832,241.63,197.487Z" transform="translate(-40.288 -41.708)"/><path class="r" d="M215.958,228.921c14.652.214,32.9,1.425,47.278-6.8a8.181,8.181,0,0,0,3.635-3.948c6.514-3.549,6.785-7.683,6.785-7.683,5.06-5.174,4.761-9.436,4.761-9.436s7.6-4.276,5.787-9.279c-2.01-5.7-12.286,1.425-20.311,1.881-18.4,1-44.841-2.737-50.172-2.979Z" transform="translate(-40.301 -37.666)"/><path class="m" d="M235.956,204.855a119.112,119.112,0,0,0,16.064-1.8,118.427,118.427,0,0,0,16.862-5.488.143.143,0,0,1,.114.257,62.573,62.573,0,0,1-33,7.269C235.714,205.083,235.685,204.869,235.956,204.855Z" transform="translate(-30.923 -34.267)"/><path class="m" d="M235.252,213.248c5.245-.684,14.453-1.938,29.262-9.108,0,0,.1,0,0,.071a56.158,56.158,0,0,1-29.291,9.279C234.981,213.5,234.981,213.291,235.252,213.248Z" transform="translate(-31.231 -31.471)"/><path class="m" d="M234.968,216.942c8.866-1.511,14.253-3.578,22.934-7.312,0,0,.1,0,0,.086-9.393,5.288-13.412,6.143-22.976,7.526C234.64,217.284,234.612,217,234.968,216.942Z" transform="translate(-31.375 -29.136)"/><path class="d" d="M190.427,176.375l-27.2,22.506s-8.053-37.985-7.255-49.815c.869-13.327,7.5-9.977,15.935-.485S190.427,176.375,190.427,176.375Z" transform="translate(-64.885 -58.653)"/><path class="m" d="M183.059,162.695c-3.863,2.409-14.4,11.217-16.149,12.657-.926.77-4.49,3.948-5.416,4.7-.114.1,0,.257.171.171,1.767-1.425,3.706-2.68,5.488-4.1s12.828-9.977,16.007-13.284a.087.087,0,0,0-.1-.143Z" transform="translate(-62.534 -49.106)"/><path class="m" d="M157.043,157.369c0-.157-.257-.1-.242,0,.314,3.293.713,6.571,1.169,9.835a28.375,28.375,0,0,1-1.425-4.974h-.114a22.8,22.8,0,0,0,1.653,5.7c.314,2.281.656,4.547,1.026,6.813.926,5.787,1.8,11.588,3.064,17.3a.4.4,0,0,0,.656.214c.926-.812,1.824-1.653,2.68-2.523.086-.086,0-.271-.143-.2-.855.556-1.682,1.14-2.494,1.739-.755-5.616-1.8-11.175-2.708-16.762S158.226,163.1,157.043,157.369Z" transform="translate(-64.669 -51.406)"/><path class="m" d="M176.649,158.638c-.784-1.682-1.582-3.378-2.423-5.031h0c.527,1.269,1.1,2.509,1.668,3.763-1.525-2.281-3.079-4.533-4.732-6.7h0c2,3.62,4.276,7.127,6.3,10.719s4.148,6.97,6.271,10.433c-.542.613-1.1,1.212-1.653,1.8a.116.116,0,1,0,.157.171c.713-.527,1.425-1.055,2.167-1.568a.4.4,0,0,0,.157-.527C182.079,167.318,179.5,162.914,176.649,158.638Z" transform="translate(-58.419 -54.214)"/></g><g transform="translate(403.937 56.552)"><path class="a" d="M370.487,177.665a30.274,30.274,0,0,0,50.585,19.142l15.137,2.224-7.569-13.1a29.932,29.932,0,0,0,2.067-14.567,30.275,30.275,0,0,0-60.22,6.3Z" transform="translate(-370.315 -143.951)"/><path class="m" d="M369.772,177.75a30.4,30.4,0,0,0,6.115,15.337,32.02,32.02,0,0,0,2.737,3.164,36.016,36.016,0,0,0,3.193,2.708,30.687,30.687,0,0,0,15.465,6,29.543,29.543,0,0,0,4.2.086,25.971,25.971,0,0,0,4.191-.442,30.445,30.445,0,0,0,14.966-7.4l-.356.114,15.137,2.323,1.1.171-.556-.969-7.54-13.113v.513a30.63,30.63,0,0,0-37.957-40.665,30.959,30.959,0,0,0-11.674,7.127,30.474,30.474,0,0,0-9.022,25.043Zm0,0A30.013,30.013,0,0,1,416.608,149.9a30.972,30.972,0,0,1,9.051,9.892,29.79,29.79,0,0,1,3.848,12.828,30.289,30.289,0,0,1-2.124,13.2l-.114.271.143.242,7.626,13.07.542-.8-15.166-2.124H420.2l-.143.128a29.718,29.718,0,0,1-14.5,7.469,23.406,23.406,0,0,1-4.1.5,28.775,28.775,0,0,1-4.148,0,29.733,29.733,0,0,1-8.082-1.782,27.78,27.78,0,0,1-7.3-3.934,26.555,26.555,0,0,1-5.958-5.8A30.374,30.374,0,0,1,369.772,177.75Z" transform="translate(-369.6 -144.037)"/><path class="o" d="M387.368,174.71a39.653,39.653,0,0,0,12.714,11.032A39.5,39.5,0,0,0,412.8,174.71c4.476-5.929,4.276-15.194-2.138-17.2-7.127-2.224-10.576,8.438-10.576,8.438s-3.521-10.733-10.562-8.438C383.135,159.587,382.893,168.78,387.368,174.71Z" transform="translate(-369.921 -138.445)"/></g></g><text class="u" transform="translate(-6446 790)"><tspan x="0" y="0">Welcome to</tspan><tspan x="0" y="60">Company Rewards</tspan></text><text class="v" transform="translate(-6446 899)"><tspan x="0" y="0">Your one and only rewards program.</tspan></text></g></svg>