<svg xmlns="http://www.w3.org/2000/svg" width="173.519" height="42.817" viewBox="0 0 173.519 42.817"><defs><style>.a{fill:#fff;}.b{fill:#ffba00;}</style></defs><g transform="translate(-538.452 577.652)"><path class="a" d="M10.016-25.293a6.14,6.14,0,0,1,2.748.538,9.484,9.484,0,0,1,1.7,1.046v3.5a7.95,7.95,0,0,0-1.748-.956,6.41,6.41,0,0,0-2.375-.388,4.1,4.1,0,0,0-2.106.568A4.258,4.258,0,0,0,6.7-19.468a4.189,4.189,0,0,0-.568,2.181A4.127,4.127,0,0,0,7.327-14.24a4.09,4.09,0,0,0,3.017,1.195,6.642,6.642,0,0,0,2.375-.373,7.519,7.519,0,0,0,1.748-.941v3.465a7.3,7.3,0,0,1-1.7,1.031,6.622,6.622,0,0,1-2.748.493,7.639,7.639,0,0,1-4.078-1.09,7.993,7.993,0,0,1-2.808-2.9A7.8,7.8,0,0,1,2.1-17.287,7.94,7.94,0,0,1,2.682-20.3,8.009,8.009,0,0,1,4.34-22.858a8.1,8.1,0,0,1,2.524-1.777A7.539,7.539,0,0,1,10.016-25.293Zm13.318,0a7.872,7.872,0,0,1,4.033,1.061,8.365,8.365,0,0,1,2.943,2.868,7.528,7.528,0,0,1,1.12,4.048,7.452,7.452,0,0,1-1.12,4.033,8.408,8.408,0,0,1-2.943,2.853A7.872,7.872,0,0,1,23.334-9.37a7.9,7.9,0,0,1-4.018-1.061,8.245,8.245,0,0,1-2.943-2.853,7.528,7.528,0,0,1-1.105-4.033,7.6,7.6,0,0,1,1.105-4.048,8.2,8.2,0,0,1,2.943-2.868A7.9,7.9,0,0,1,23.334-25.293Zm0,3.674a4.1,4.1,0,0,0-2,.508,3.8,3.8,0,0,0-1.479,1.464,4.585,4.585,0,0,0-.553,2.33,4.585,4.585,0,0,0,.553,2.33,3.693,3.693,0,0,0,1.479,1.449,4.2,4.2,0,0,0,2,.493,4.2,4.2,0,0,0,2-.493,3.792,3.792,0,0,0,1.494-1.449,4.489,4.489,0,0,0,.568-2.33,4.489,4.489,0,0,0-.568-2.33,3.9,3.9,0,0,0-1.494-1.464A4.1,4.1,0,0,0,23.334-21.619ZM37.279-24.9v1.912a8.677,8.677,0,0,1,1.658-1.583,4.091,4.091,0,0,1,2.494-.717,5.69,5.69,0,0,1,2.868.732,4.947,4.947,0,0,1,2,2.2,9.19,9.19,0,0,1,2.091-2.076,4.664,4.664,0,0,1,2.778-.851,5.592,5.592,0,0,1,2.778.7,5.2,5.2,0,0,1,2.016,2.076,7.014,7.014,0,0,1,.762,3.435v9.261H52.932l-.03-8.753a2.981,2.981,0,0,0-.792-2.27,2.9,2.9,0,0,0-2.076-.747,2.537,2.537,0,0,0-1.7.612,8.977,8.977,0,0,0-1.344,1.449v9.709H43.194l-.03-8.753a2.981,2.981,0,0,0-.792-2.27,2.861,2.861,0,0,0-2.046-.747,2.694,2.694,0,0,0-1.7.583,7.558,7.558,0,0,0-1.344,1.359v9.828H33.485V-24.9Zm30.883-.388a6.422,6.422,0,0,1,3.331.911,6.681,6.681,0,0,1,2.479,2.659,8.876,8.876,0,0,1,.941,4.257,9.329,9.329,0,0,1-.941,4.332,6.856,6.856,0,0,1-2.539,2.793,6.687,6.687,0,0,1-3.54.971A5.585,5.585,0,0,1,65.4-9.983a6.841,6.841,0,0,1-2.076-1.538v8.872H59.528V-24.9h3.794v2.539a5.835,5.835,0,0,1,1.912-2.076A5.088,5.088,0,0,1,68.162-25.293ZM67.206-21.5a3.733,3.733,0,0,0-1.912.523A3.974,3.974,0,0,0,63.845-19.5a4.324,4.324,0,0,0-.523,2.3v2.181a8.185,8.185,0,0,0,1.748,1.389,3.97,3.97,0,0,0,2.046.553,3.371,3.371,0,0,0,2.031-.627,4.216,4.216,0,0,0,1.344-1.628,4.893,4.893,0,0,0,.478-2.136,4.173,4.173,0,0,0-1.031-2.868A3.471,3.471,0,0,0,67.206-21.5Zm15.767-3.794a5.981,5.981,0,0,1,2.479.568A6.042,6.042,0,0,1,87.544-23.2v-1.7h3.794V-9.819H87.544v-2.539a6.089,6.089,0,0,1-1.912,2.106A4.964,4.964,0,0,1,82.7-9.37a6.4,6.4,0,0,1-3.361-.926,6.665,6.665,0,0,1-2.465-2.689,9.085,9.085,0,0,1-.926-4.272,9.146,9.146,0,0,1,.941-4.3,6.9,6.9,0,0,1,2.539-2.763A6.687,6.687,0,0,1,82.973-25.293Zm.777,3.7a3.411,3.411,0,0,0-2.046.612,4.174,4.174,0,0,0-1.329,1.6,4.8,4.8,0,0,0-.478,2.121,4.285,4.285,0,0,0,1.031,2.9,3.431,3.431,0,0,0,2.733,1.195,3.578,3.578,0,0,0,1.9-.538,4.1,4.1,0,0,0,1.434-1.509,4.669,4.669,0,0,0,.553-2.345v-2.151A6.814,6.814,0,0,0,85.8-21.081,4.241,4.241,0,0,0,83.75-21.589ZM98.262-24.9v2.151a7.7,7.7,0,0,1,1.867-1.733,4.676,4.676,0,0,1,2.7-.807,5.233,5.233,0,0,1,3.854,1.553,6.329,6.329,0,0,1,1.553,4.66v9.261h-3.794l-.03-8.753a3.127,3.127,0,0,0-.732-2.27,2.694,2.694,0,0,0-2.016-.747,3.112,3.112,0,0,0-1.9.657,6.768,6.768,0,0,0-1.509,1.553v9.56H94.468V-24.9Zm15.2,0,4.3,9.619,4.182-9.619h4.332L115.314-2.649h-4.3l4.541-8.275L109.041-24.9Z" transform="translate(585.693 -549.692)"/><path class="a" d="M13.308-24.491a4.025,4.025,0,0,0-2-.538,2.984,2.984,0,0,0-2.181.851A8.363,8.363,0,0,0,7.6-22.072v8.424H3.809V-28.733H7.6V-25.9A8.391,8.391,0,0,1,9.44-28.136a3.625,3.625,0,0,1,2.4-.9,3.833,3.833,0,0,1,1.464.269Zm8-4.63a7.284,7.284,0,0,1,3.809.956,6.345,6.345,0,0,1,2.45,2.644,8.544,8.544,0,0,1,.851,3.9v1.613H17.485a3.959,3.959,0,0,0,1.494,2.45,4.635,4.635,0,0,0,2.928.926,6.71,6.71,0,0,0,2.987-.657,10.327,10.327,0,0,0,2.151-1.344l-.03,3.525a8.835,8.835,0,0,1-2.136,1.27,7.483,7.483,0,0,1-3.122.642,8.286,8.286,0,0,1-4.078-1.016,7.846,7.846,0,0,1-2.928-2.778,7.507,7.507,0,0,1-1.09-4.033,8.338,8.338,0,0,1,.986-4.033A7.957,7.957,0,0,1,17.365-28,7.1,7.1,0,0,1,21.308-29.122Zm-.09,3.316a3.385,3.385,0,0,0-2.36.866,4.491,4.491,0,0,0-1.314,2.33h7.229a3.1,3.1,0,0,0-1.195-2.4A3.894,3.894,0,0,0,21.219-25.806Zm30.106-2.928L46.1-13.647H43.349l-3.525-9.769L36.3-13.647H33.521l-5.2-15.086h4.123L35.224-19.8l3.256-8.932H41.2L44.425-19.8,47.2-28.733Zm6.477-.388a5.981,5.981,0,0,1,2.479.568,6.043,6.043,0,0,1,2.091,1.524v-1.7h3.794v15.086H62.373v-2.539a6.089,6.089,0,0,1-1.912,2.106,4.964,4.964,0,0,1-2.928.881,6.4,6.4,0,0,1-3.361-.926,6.665,6.665,0,0,1-2.465-2.689,9.085,9.085,0,0,1-.926-4.272,9.146,9.146,0,0,1,.941-4.3,6.9,6.9,0,0,1,2.539-2.763A6.687,6.687,0,0,1,57.8-29.122Zm.777,3.7a3.411,3.411,0,0,0-2.046.612,4.174,4.174,0,0,0-1.329,1.6,4.8,4.8,0,0,0-.478,2.121,4.285,4.285,0,0,0,1.031,2.9,3.431,3.431,0,0,0,2.733,1.195,3.578,3.578,0,0,0,1.9-.538A4.1,4.1,0,0,0,61.82-19.04a4.669,4.669,0,0,0,.553-2.345v-2.151a6.814,6.814,0,0,0-1.748-1.374A4.241,4.241,0,0,0,58.579-25.418Zm20.218.926a4.026,4.026,0,0,0-2-.538,2.984,2.984,0,0,0-2.181.851,8.363,8.363,0,0,0-1.524,2.106v8.424H69.3V-28.733h3.794V-25.9a8.391,8.391,0,0,1,1.837-2.241,3.625,3.625,0,0,1,2.4-.9,3.833,3.833,0,0,1,1.464.269ZM94.534-35.156v21.509H90.74v-2.539a6.089,6.089,0,0,1-1.912,2.106A4.964,4.964,0,0,1,85.9-13.2a6.4,6.4,0,0,1-3.361-.926,6.665,6.665,0,0,1-2.465-2.689,9.085,9.085,0,0,1-.926-4.272,9.146,9.146,0,0,1,.941-4.3,6.9,6.9,0,0,1,2.539-2.763,6.687,6.687,0,0,1,3.54-.971,5.981,5.981,0,0,1,2.479.568,6.042,6.042,0,0,1,2.091,1.524v-8.126Zm-7.588,9.769a3.411,3.411,0,0,0-2.046.612,4.2,4.2,0,0,0-1.329,1.583,4.7,4.7,0,0,0-.478,2.106,4.285,4.285,0,0,0,1.031,2.9,3.431,3.431,0,0,0,2.733,1.195,3.578,3.578,0,0,0,1.9-.538,4.1,4.1,0,0,0,1.434-1.509,4.669,4.669,0,0,0,.553-2.345v-2.151a6.538,6.538,0,0,0-1.748-1.359A4.343,4.343,0,0,0,86.946-25.388Zm15.588-3.734a7.816,7.816,0,0,1,2.6.418,6.138,6.138,0,0,1,1.852.956V-24.4a11.26,11.26,0,0,0-1.748-.926,5.3,5.3,0,0,0-2.136-.448,2.745,2.745,0,0,0-1.7.478,1.4,1.4,0,0,0-.627,1.135,1.3,1.3,0,0,0,.358.881,3,3,0,0,0,1.374.7l1.7.568q3.435,1.016,3.435,3.973a4.137,4.137,0,0,1-.792,2.494,5.419,5.419,0,0,1-2.121,1.718,6.808,6.808,0,0,1-2.943.627,9.292,9.292,0,0,1-2.957-.478,7.677,7.677,0,0,1-2.181-1.046v-3.316a8.7,8.7,0,0,0,1.374.747,10.721,10.721,0,0,0,1.673.583,6.369,6.369,0,0,0,1.583.224,3.173,3.173,0,0,0,1.748-.4,1.3,1.3,0,0,0,.612-1.15,1.018,1.018,0,0,0-.508-.9,6.817,6.817,0,0,0-1.494-.657l-1.852-.657a4.245,4.245,0,0,1-2.39-1.613,4.562,4.562,0,0,1-.657-2.479,4.282,4.282,0,0,1,.732-2.494,4.966,4.966,0,0,1,2.046-1.673A7.069,7.069,0,0,1,102.534-29.122Z" transform="translate(585.03 -522.003)"/><g transform="translate(538.452 -577.652)"><path class="b" d="M39.945,5.009H3.142A3.157,3.157,0,0,0,0,8.151v6.283a3.157,3.157,0,0,0,3.142,3.142h36.8a3.157,3.157,0,0,0,3.142-3.142V8.151A3.157,3.157,0,0,0,39.945,5.009Z" transform="translate(0 3.698)"/><path class="a" d="M3.346,13.509H2V27.422a4.934,4.934,0,0,0,4.937,4.937H18.606V13.509H3.346Z" transform="translate(1.591 10.458)"/><path class="a" d="M26.663,13.509H12.75v18.85H24.419a4.934,4.934,0,0,0,4.937-4.937V13.509H26.663Z" transform="translate(10.14 10.458)"/><path class="b" d="M24.855,1.507a4.871,4.871,0,0,0-6.727,0A10.081,10.081,0,0,0,16.374,4.97,10.081,10.081,0,0,0,14.62,1.507a4.869,4.869,0,0,0-6.727,0,4.757,4.757,0,0,0,0,6.727c1.494,1.494,6.646,2.725,8.19,3.066a1.237,1.237,0,0,0,.291.034,1.337,1.337,0,0,0,.291-.032c1.542-.341,6.695-1.574,8.19-3.066a4.759,4.759,0,0,0,0-6.729ZM9.8,6.331A2.064,2.064,0,0,1,12.715,3.41a16.279,16.279,0,0,1,1.811,4.731A16.3,16.3,0,0,1,9.8,6.331Zm13.152,0a16.346,16.346,0,0,1-4.731,1.81A16.279,16.279,0,0,1,20.031,3.41,2.065,2.065,0,0,1,22.95,6.331Z" transform="translate(5.169 -0.159)"/></g></g></svg>